<?xml version="1.0" encoding="utf-8" standalone="no"?>
<!DOCTYPE svg PUBLIC "-//W3C//DTD SVG 1.1//EN"
  "http://www.w3.org/Graphics/SVG/1.1/DTD/svg11.dtd">
<svg xmlns:xlink="http://www.w3.org/1999/xlink" width="1000.998633pt" height="494.376469pt" viewBox="0 0 1000.998633 494.376469" xmlns="http://www.w3.org/2000/svg" version="1.1">
 <metadata>
  <rdf:RDF xmlns:dc="http://purl.org/dc/elements/1.1/" xmlns:cc="http://creativecommons.org/ns#" xmlns:rdf="http://www.w3.org/1999/02/22-rdf-syntax-ns#">
   <cc:Work>
    <dc:type rdf:resource="http://purl.org/dc/dcmitype/StillImage"/>
    <dc:date>2024-09-02T23:46:20.547137</dc:date>
    <dc:format>image/svg+xml</dc:format>
    <dc:creator>
     <cc:Agent>
      <dc:title>Matplotlib v3.7.2, https://matplotlib.org/</dc:title>
     </cc:Agent>
    </dc:creator>
   </cc:Work>
  </rdf:RDF>
 </metadata>
 <defs>
  <style type="text/css">*{stroke-linejoin: round; stroke-linecap: butt}</style>
 </defs>
 <g id="figure_1">
  <g id="patch_1">
   <path d="M 0 494.376469 
L 1000.998633 494.376469 
L 1000.998633 0 
L 0 0 
z
" style="fill: #ffffff"/>
  </g>
  <g id="axes_1">
   <g id="patch_2">
    <path d="M 59.801133 420.513813 
L 494.186133 420.513813 
L 494.186133 62.189812 
L 59.801133 62.189812 
z
" style="fill: #ffffff"/>
   </g>
   <g id="matplotlib.axis_1">
    <g id="xtick_1">
     <g id="text_1">
      <!-- old -->
      <g style="fill: #262626" transform="translate(150.78756 447.729398) scale(0.2475 -0.2475)">
       <defs>
        <path id="ArialMT-6f" d="M 213 1659 
Q 213 2581 725 3025 
Q 1153 3394 1769 3394 
Q 2453 3394 2887 2945 
Q 3322 2497 3322 1706 
Q 3322 1066 3130 698 
Q 2938 331 2570 128 
Q 2203 -75 1769 -75 
Q 1072 -75 642 372 
Q 213 819 213 1659 
z
M 791 1659 
Q 791 1022 1069 705 
Q 1347 388 1769 388 
Q 2188 388 2466 706 
Q 2744 1025 2744 1678 
Q 2744 2294 2464 2611 
Q 2184 2928 1769 2928 
Q 1347 2928 1069 2612 
Q 791 2297 791 1659 
z
" transform="scale(0.015625)"/>
        <path id="ArialMT-6c" d="M 409 0 
L 409 4581 
L 972 4581 
L 972 0 
L 409 0 
z
" transform="scale(0.015625)"/>
        <path id="ArialMT-64" d="M 2575 0 
L 2575 419 
Q 2259 -75 1647 -75 
Q 1250 -75 917 144 
Q 584 363 401 755 
Q 219 1147 219 1656 
Q 219 2153 384 2558 
Q 550 2963 881 3178 
Q 1213 3394 1622 3394 
Q 1922 3394 2156 3267 
Q 2391 3141 2538 2938 
L 2538 4581 
L 3097 4581 
L 3097 0 
L 2575 0 
z
M 797 1656 
Q 797 1019 1065 703 
Q 1334 388 1700 388 
Q 2069 388 2326 689 
Q 2584 991 2584 1609 
Q 2584 2291 2321 2609 
Q 2059 2928 1675 2928 
Q 1300 2928 1048 2622 
Q 797 2316 797 1656 
z
" transform="scale(0.015625)"/>
       </defs>
       <use xlink:href="#ArialMT-6f"/>
       <use xlink:href="#ArialMT-6c" x="55.615234"/>
       <use xlink:href="#ArialMT-64" x="77.832031"/>
      </g>
     </g>
    </g>
    <g id="xtick_2">
     <g id="text_2">
      <!-- young -->
      <g style="fill: #262626" transform="translate(352.972674 447.439359) scale(0.2475 -0.2475)">
       <defs>
        <path id="ArialMT-79" d="M 397 -1278 
L 334 -750 
Q 519 -800 656 -800 
Q 844 -800 956 -737 
Q 1069 -675 1141 -563 
Q 1194 -478 1313 -144 
Q 1328 -97 1363 -6 
L 103 3319 
L 709 3319 
L 1400 1397 
Q 1534 1031 1641 628 
Q 1738 1016 1872 1384 
L 2581 3319 
L 3144 3319 
L 1881 -56 
Q 1678 -603 1566 -809 
Q 1416 -1088 1222 -1217 
Q 1028 -1347 759 -1347 
Q 597 -1347 397 -1278 
z
" transform="scale(0.015625)"/>
        <path id="ArialMT-75" d="M 2597 0 
L 2597 488 
Q 2209 -75 1544 -75 
Q 1250 -75 995 37 
Q 741 150 617 320 
Q 494 491 444 738 
Q 409 903 409 1263 
L 409 3319 
L 972 3319 
L 972 1478 
Q 972 1038 1006 884 
Q 1059 663 1231 536 
Q 1403 409 1656 409 
Q 1909 409 2131 539 
Q 2353 669 2445 892 
Q 2538 1116 2538 1541 
L 2538 3319 
L 3100 3319 
L 3100 0 
L 2597 0 
z
" transform="scale(0.015625)"/>
        <path id="ArialMT-6e" d="M 422 0 
L 422 3319 
L 928 3319 
L 928 2847 
Q 1294 3394 1984 3394 
Q 2284 3394 2536 3286 
Q 2788 3178 2913 3003 
Q 3038 2828 3088 2588 
Q 3119 2431 3119 2041 
L 3119 0 
L 2556 0 
L 2556 2019 
Q 2556 2363 2490 2533 
Q 2425 2703 2258 2804 
Q 2091 2906 1866 2906 
Q 1506 2906 1245 2678 
Q 984 2450 984 1813 
L 984 0 
L 422 0 
z
" transform="scale(0.015625)"/>
        <path id="ArialMT-67" d="M 319 -275 
L 866 -356 
Q 900 -609 1056 -725 
Q 1266 -881 1628 -881 
Q 2019 -881 2231 -725 
Q 2444 -569 2519 -288 
Q 2563 -116 2559 434 
Q 2191 0 1641 0 
Q 956 0 581 494 
Q 206 988 206 1678 
Q 206 2153 378 2554 
Q 550 2956 876 3175 
Q 1203 3394 1644 3394 
Q 2231 3394 2613 2919 
L 2613 3319 
L 3131 3319 
L 3131 450 
Q 3131 -325 2973 -648 
Q 2816 -972 2473 -1159 
Q 2131 -1347 1631 -1347 
Q 1038 -1347 672 -1080 
Q 306 -813 319 -275 
z
M 784 1719 
Q 784 1066 1043 766 
Q 1303 466 1694 466 
Q 2081 466 2343 764 
Q 2606 1063 2606 1700 
Q 2606 2309 2336 2618 
Q 2066 2928 1684 2928 
Q 1309 2928 1046 2623 
Q 784 2319 784 1719 
z
" transform="scale(0.015625)"/>
       </defs>
       <use xlink:href="#ArialMT-79"/>
       <use xlink:href="#ArialMT-6f" x="50"/>
       <use xlink:href="#ArialMT-75" x="105.615234"/>
       <use xlink:href="#ArialMT-6e" x="161.230469"/>
       <use xlink:href="#ArialMT-67" x="216.845703"/>
      </g>
     </g>
    </g>
   </g>
   <g id="matplotlib.axis_2">
    <g id="ytick_1">
     <g id="line2d_1">
      <path d="M 59.801133 420.513813 
L 494.186133 420.513813 
" clip-path="url(#p2406b397bb)" style="fill: none; stroke: #cccccc; stroke-linecap: round"/>
     </g>
     <g id="text_3">
      <!-- 0 -->
      <g style="fill: #262626" transform="translate(36.537813 429.371605) scale(0.2475 -0.2475)">
       <defs>
        <path id="ArialMT-30" d="M 266 2259 
Q 266 3072 433 3567 
Q 600 4063 929 4331 
Q 1259 4600 1759 4600 
Q 2128 4600 2406 4451 
Q 2684 4303 2865 4023 
Q 3047 3744 3150 3342 
Q 3253 2941 3253 2259 
Q 3253 1453 3087 958 
Q 2922 463 2592 192 
Q 2263 -78 1759 -78 
Q 1097 -78 719 397 
Q 266 969 266 2259 
z
M 844 2259 
Q 844 1131 1108 757 
Q 1372 384 1759 384 
Q 2147 384 2411 759 
Q 2675 1134 2675 2259 
Q 2675 3391 2411 3762 
Q 2147 4134 1753 4134 
Q 1366 4134 1134 3806 
Q 844 3388 844 2259 
z
" transform="scale(0.015625)"/>
       </defs>
       <use xlink:href="#ArialMT-30"/>
      </g>
     </g>
    </g>
    <g id="ytick_2">
     <g id="line2d_2">
      <path d="M 59.801133 348.849013 
L 494.186133 348.849013 
" clip-path="url(#p2406b397bb)" style="fill: none; stroke: #cccccc; stroke-linecap: round"/>
     </g>
     <g id="text_4">
      <!-- 1 -->
      <g style="fill: #262626" transform="translate(36.537813 357.706805) scale(0.2475 -0.2475)">
       <defs>
        <path id="ArialMT-31" d="M 2384 0 
L 1822 0 
L 1822 3584 
Q 1619 3391 1289 3197 
Q 959 3003 697 2906 
L 697 3450 
Q 1169 3672 1522 3987 
Q 1875 4303 2022 4600 
L 2384 4600 
L 2384 0 
z
" transform="scale(0.015625)"/>
       </defs>
       <use xlink:href="#ArialMT-31"/>
      </g>
     </g>
    </g>
    <g id="ytick_3">
     <g id="line2d_3">
      <path d="M 59.801133 277.184213 
L 494.186133 277.184213 
" clip-path="url(#p2406b397bb)" style="fill: none; stroke: #cccccc; stroke-linecap: round"/>
     </g>
     <g id="text_5">
      <!-- 2 -->
      <g style="fill: #262626" transform="translate(36.537813 286.042005) scale(0.2475 -0.2475)">
       <defs>
        <path id="ArialMT-32" d="M 3222 541 
L 3222 0 
L 194 0 
Q 188 203 259 391 
Q 375 700 629 1000 
Q 884 1300 1366 1694 
Q 2113 2306 2375 2664 
Q 2638 3022 2638 3341 
Q 2638 3675 2398 3904 
Q 2159 4134 1775 4134 
Q 1369 4134 1125 3890 
Q 881 3647 878 3216 
L 300 3275 
Q 359 3922 746 4261 
Q 1134 4600 1788 4600 
Q 2447 4600 2831 4234 
Q 3216 3869 3216 3328 
Q 3216 3053 3103 2787 
Q 2991 2522 2730 2228 
Q 2469 1934 1863 1422 
Q 1356 997 1212 845 
Q 1069 694 975 541 
L 3222 541 
z
" transform="scale(0.015625)"/>
       </defs>
       <use xlink:href="#ArialMT-32"/>
      </g>
     </g>
    </g>
    <g id="ytick_4">
     <g id="line2d_4">
      <path d="M 59.801133 205.519412 
L 494.186133 205.519412 
" clip-path="url(#p2406b397bb)" style="fill: none; stroke: #cccccc; stroke-linecap: round"/>
     </g>
     <g id="text_6">
      <!-- 3 -->
      <g style="fill: #262626" transform="translate(36.537813 214.377205) scale(0.2475 -0.2475)">
       <defs>
        <path id="ArialMT-33" d="M 269 1209 
L 831 1284 
Q 928 806 1161 595 
Q 1394 384 1728 384 
Q 2125 384 2398 659 
Q 2672 934 2672 1341 
Q 2672 1728 2419 1979 
Q 2166 2231 1775 2231 
Q 1616 2231 1378 2169 
L 1441 2663 
Q 1497 2656 1531 2656 
Q 1891 2656 2178 2843 
Q 2466 3031 2466 3422 
Q 2466 3731 2256 3934 
Q 2047 4138 1716 4138 
Q 1388 4138 1169 3931 
Q 950 3725 888 3313 
L 325 3413 
Q 428 3978 793 4289 
Q 1159 4600 1703 4600 
Q 2078 4600 2393 4439 
Q 2709 4278 2876 4000 
Q 3044 3722 3044 3409 
Q 3044 3113 2884 2869 
Q 2725 2625 2413 2481 
Q 2819 2388 3044 2092 
Q 3269 1797 3269 1353 
Q 3269 753 2831 336 
Q 2394 -81 1725 -81 
Q 1122 -81 723 278 
Q 325 638 269 1209 
z
" transform="scale(0.015625)"/>
       </defs>
       <use xlink:href="#ArialMT-33"/>
      </g>
     </g>
    </g>
    <g id="ytick_5">
     <g id="line2d_5">
      <path d="M 59.801133 133.854612 
L 494.186133 133.854612 
" clip-path="url(#p2406b397bb)" style="fill: none; stroke: #cccccc; stroke-linecap: round"/>
     </g>
     <g id="text_7">
      <!-- 4 -->
      <g style="fill: #262626" transform="translate(36.537813 142.712405) scale(0.2475 -0.2475)">
       <defs>
        <path id="ArialMT-34" d="M 2069 0 
L 2069 1097 
L 81 1097 
L 81 1613 
L 2172 4581 
L 2631 4581 
L 2631 1613 
L 3250 1613 
L 3250 1097 
L 2631 1097 
L 2631 0 
L 2069 0 
z
M 2069 1613 
L 2069 3678 
L 634 1613 
L 2069 1613 
z
" transform="scale(0.015625)"/>
       </defs>
       <use xlink:href="#ArialMT-34"/>
      </g>
     </g>
    </g>
    <g id="ytick_6">
     <g id="line2d_6">
      <path d="M 59.801133 62.189812 
L 494.186133 62.189812 
" clip-path="url(#p2406b397bb)" style="fill: none; stroke: #cccccc; stroke-linecap: round"/>
     </g>
     <g id="text_8">
      <!-- 5 -->
      <g style="fill: #262626" transform="translate(36.537813 71.047605) scale(0.2475 -0.2475)">
       <defs>
        <path id="ArialMT-35" d="M 266 1200 
L 856 1250 
Q 922 819 1161 601 
Q 1400 384 1738 384 
Q 2144 384 2425 690 
Q 2706 997 2706 1503 
Q 2706 1984 2436 2262 
Q 2166 2541 1728 2541 
Q 1456 2541 1237 2417 
Q 1019 2294 894 2097 
L 366 2166 
L 809 4519 
L 3088 4519 
L 3088 3981 
L 1259 3981 
L 1013 2750 
Q 1425 3038 1878 3038 
Q 2478 3038 2890 2622 
Q 3303 2206 3303 1553 
Q 3303 931 2941 478 
Q 2500 -78 1738 -78 
Q 1113 -78 717 272 
Q 322 622 266 1200 
z
" transform="scale(0.015625)"/>
       </defs>
       <use xlink:href="#ArialMT-35"/>
      </g>
     </g>
    </g>
    <g id="text_9">
     <!-- Average Likert Score -->
     <g style="fill: #262626" transform="translate(26.855156 367.169703) rotate(-90) scale(0.27 -0.27)">
      <defs>
       <path id="ArialMT-41" d="M -9 0 
L 1750 4581 
L 2403 4581 
L 4278 0 
L 3588 0 
L 3053 1388 
L 1138 1388 
L 634 0 
L -9 0 
z
M 1313 1881 
L 2866 1881 
L 2388 3150 
Q 2169 3728 2063 4100 
Q 1975 3659 1816 3225 
L 1313 1881 
z
" transform="scale(0.015625)"/>
       <path id="ArialMT-76" d="M 1344 0 
L 81 3319 
L 675 3319 
L 1388 1331 
Q 1503 1009 1600 663 
Q 1675 925 1809 1294 
L 2547 3319 
L 3125 3319 
L 1869 0 
L 1344 0 
z
" transform="scale(0.015625)"/>
       <path id="ArialMT-65" d="M 2694 1069 
L 3275 997 
Q 3138 488 2766 206 
Q 2394 -75 1816 -75 
Q 1088 -75 661 373 
Q 234 822 234 1631 
Q 234 2469 665 2931 
Q 1097 3394 1784 3394 
Q 2450 3394 2872 2941 
Q 3294 2488 3294 1666 
Q 3294 1616 3291 1516 
L 816 1516 
Q 847 969 1125 678 
Q 1403 388 1819 388 
Q 2128 388 2347 550 
Q 2566 713 2694 1069 
z
M 847 1978 
L 2700 1978 
Q 2663 2397 2488 2606 
Q 2219 2931 1791 2931 
Q 1403 2931 1139 2672 
Q 875 2413 847 1978 
z
" transform="scale(0.015625)"/>
       <path id="ArialMT-72" d="M 416 0 
L 416 3319 
L 922 3319 
L 922 2816 
Q 1116 3169 1280 3281 
Q 1444 3394 1641 3394 
Q 1925 3394 2219 3213 
L 2025 2691 
Q 1819 2813 1613 2813 
Q 1428 2813 1281 2702 
Q 1134 2591 1072 2394 
Q 978 2094 978 1738 
L 978 0 
L 416 0 
z
" transform="scale(0.015625)"/>
       <path id="ArialMT-61" d="M 2588 409 
Q 2275 144 1986 34 
Q 1697 -75 1366 -75 
Q 819 -75 525 192 
Q 231 459 231 875 
Q 231 1119 342 1320 
Q 453 1522 633 1644 
Q 813 1766 1038 1828 
Q 1203 1872 1538 1913 
Q 2219 1994 2541 2106 
Q 2544 2222 2544 2253 
Q 2544 2597 2384 2738 
Q 2169 2928 1744 2928 
Q 1347 2928 1158 2789 
Q 969 2650 878 2297 
L 328 2372 
Q 403 2725 575 2942 
Q 747 3159 1072 3276 
Q 1397 3394 1825 3394 
Q 2250 3394 2515 3294 
Q 2781 3194 2906 3042 
Q 3031 2891 3081 2659 
Q 3109 2516 3109 2141 
L 3109 1391 
Q 3109 606 3145 398 
Q 3181 191 3288 0 
L 2700 0 
Q 2613 175 2588 409 
z
M 2541 1666 
Q 2234 1541 1622 1453 
Q 1275 1403 1131 1340 
Q 988 1278 909 1158 
Q 831 1038 831 891 
Q 831 666 1001 516 
Q 1172 366 1500 366 
Q 1825 366 2078 508 
Q 2331 650 2450 897 
Q 2541 1088 2541 1459 
L 2541 1666 
z
" transform="scale(0.015625)"/>
       <path id="ArialMT-20" transform="scale(0.015625)"/>
       <path id="ArialMT-4c" d="M 469 0 
L 469 4581 
L 1075 4581 
L 1075 541 
L 3331 541 
L 3331 0 
L 469 0 
z
" transform="scale(0.015625)"/>
       <path id="ArialMT-69" d="M 425 3934 
L 425 4581 
L 988 4581 
L 988 3934 
L 425 3934 
z
M 425 0 
L 425 3319 
L 988 3319 
L 988 0 
L 425 0 
z
" transform="scale(0.015625)"/>
       <path id="ArialMT-6b" d="M 425 0 
L 425 4581 
L 988 4581 
L 988 1969 
L 2319 3319 
L 3047 3319 
L 1778 2088 
L 3175 0 
L 2481 0 
L 1384 1697 
L 988 1316 
L 988 0 
L 425 0 
z
" transform="scale(0.015625)"/>
       <path id="ArialMT-74" d="M 1650 503 
L 1731 6 
Q 1494 -44 1306 -44 
Q 1000 -44 831 53 
Q 663 150 594 308 
Q 525 466 525 972 
L 525 2881 
L 113 2881 
L 113 3319 
L 525 3319 
L 525 4141 
L 1084 4478 
L 1084 3319 
L 1650 3319 
L 1650 2881 
L 1084 2881 
L 1084 941 
Q 1084 700 1114 631 
Q 1144 563 1211 522 
Q 1278 481 1403 481 
Q 1497 481 1650 503 
z
" transform="scale(0.015625)"/>
       <path id="ArialMT-53" d="M 288 1472 
L 859 1522 
Q 900 1178 1048 958 
Q 1197 738 1509 602 
Q 1822 466 2213 466 
Q 2559 466 2825 569 
Q 3091 672 3220 851 
Q 3350 1031 3350 1244 
Q 3350 1459 3225 1620 
Q 3100 1781 2813 1891 
Q 2628 1963 1997 2114 
Q 1366 2266 1113 2400 
Q 784 2572 623 2826 
Q 463 3081 463 3397 
Q 463 3744 659 4045 
Q 856 4347 1234 4503 
Q 1613 4659 2075 4659 
Q 2584 4659 2973 4495 
Q 3363 4331 3572 4012 
Q 3781 3694 3797 3291 
L 3216 3247 
Q 3169 3681 2898 3903 
Q 2628 4125 2100 4125 
Q 1550 4125 1298 3923 
Q 1047 3722 1047 3438 
Q 1047 3191 1225 3031 
Q 1400 2872 2139 2705 
Q 2878 2538 3153 2413 
Q 3553 2228 3743 1945 
Q 3934 1663 3934 1294 
Q 3934 928 3725 604 
Q 3516 281 3123 101 
Q 2731 -78 2241 -78 
Q 1619 -78 1198 103 
Q 778 284 539 648 
Q 300 1013 288 1472 
z
" transform="scale(0.015625)"/>
       <path id="ArialMT-63" d="M 2588 1216 
L 3141 1144 
Q 3050 572 2676 248 
Q 2303 -75 1759 -75 
Q 1078 -75 664 370 
Q 250 816 250 1647 
Q 250 2184 428 2587 
Q 606 2991 970 3192 
Q 1334 3394 1763 3394 
Q 2303 3394 2647 3120 
Q 2991 2847 3088 2344 
L 2541 2259 
Q 2463 2594 2264 2762 
Q 2066 2931 1784 2931 
Q 1359 2931 1093 2626 
Q 828 2322 828 1663 
Q 828 994 1084 691 
Q 1341 388 1753 388 
Q 2084 388 2306 591 
Q 2528 794 2588 1216 
z
" transform="scale(0.015625)"/>
      </defs>
      <use xlink:href="#ArialMT-41"/>
      <use xlink:href="#ArialMT-76" x="64.949219"/>
      <use xlink:href="#ArialMT-65" x="114.949219"/>
      <use xlink:href="#ArialMT-72" x="170.564453"/>
      <use xlink:href="#ArialMT-61" x="203.865234"/>
      <use xlink:href="#ArialMT-67" x="259.480469"/>
      <use xlink:href="#ArialMT-65" x="315.095703"/>
      <use xlink:href="#ArialMT-20" x="370.710938"/>
      <use xlink:href="#ArialMT-4c" x="398.494141"/>
      <use xlink:href="#ArialMT-69" x="454.109375"/>
      <use xlink:href="#ArialMT-6b" x="476.326172"/>
      <use xlink:href="#ArialMT-65" x="526.326172"/>
      <use xlink:href="#ArialMT-72" x="581.941406"/>
      <use xlink:href="#ArialMT-74" x="615.242188"/>
      <use xlink:href="#ArialMT-20" x="643.025391"/>
      <use xlink:href="#ArialMT-53" x="670.808594"/>
      <use xlink:href="#ArialMT-63" x="737.507812"/>
      <use xlink:href="#ArialMT-6f" x="787.507812"/>
      <use xlink:href="#ArialMT-72" x="843.123047"/>
      <use xlink:href="#ArialMT-65" x="876.423828"/>
     </g>
    </g>
   </g>
   <g id="patch_3">
    <path d="M 79.545906 420.513813 
L 255.054996 420.513813 
L 255.054996 206.822409 
L 79.545906 206.822409 
z
" clip-path="url(#p2406b397bb)" style="fill: #68afd7; stroke: #ffffff; stroke-linejoin: miter"/>
   </g>
   <g id="patch_4">
    <path d="M 298.932269 420.513813 
L 474.44136 420.513813 
L 474.44136 148.941939 
L 298.932269 148.941939 
z
" clip-path="url(#p2406b397bb)" style="fill: #ba611b; stroke: #ffffff; stroke-linejoin: miter"/>
   </g>
   <g id="line2d_7">
    <path d="M 167.300451 216.211755 
L 167.300451 197.433063 
" clip-path="url(#p2406b397bb)" style="fill: none; stroke: #424242; stroke-width: 2.7; stroke-linecap: round"/>
   </g>
   <g id="line2d_8">
    <path d="M 156.331133 216.211755 
L 178.269769 216.211755 
" clip-path="url(#p2406b397bb)" style="fill: none; stroke: #424242; stroke-width: 2.7; stroke-linecap: round"/>
   </g>
   <g id="line2d_9">
    <path d="M 156.331133 197.433063 
L 178.269769 197.433063 
" clip-path="url(#p2406b397bb)" style="fill: none; stroke: #424242; stroke-width: 2.7; stroke-linecap: round"/>
   </g>
   <g id="line2d_10">
    <path d="M 386.686815 157.863926 
L 386.686815 140.019952 
" clip-path="url(#p2406b397bb)" style="fill: none; stroke: #424242; stroke-width: 2.7; stroke-linecap: round"/>
   </g>
   <g id="line2d_11">
    <path d="M 375.717496 157.863926 
L 397.656133 157.863926 
" clip-path="url(#p2406b397bb)" style="fill: none; stroke: #424242; stroke-width: 2.7; stroke-linecap: round"/>
   </g>
   <g id="line2d_12">
    <path d="M 375.717496 140.019952 
L 397.656133 140.019952 
" clip-path="url(#p2406b397bb)" style="fill: none; stroke: #424242; stroke-width: 2.7; stroke-linecap: round"/>
   </g>
   <g id="line2d_13">
    <path d="M 167.300451 126.688132 
L 167.300451 90.855732 
L 386.686815 90.855732 
L 386.686815 126.688132 
" clip-path="url(#p2406b397bb)" style="fill: none; stroke: #000000; stroke-width: 1.5; stroke-linecap: round"/>
   </g>
   <g id="patch_5">
    <path d="M 59.801133 420.513813 
L 59.801133 62.189812 
" style="fill: none; stroke: #cccccc; stroke-width: 1.25; stroke-linejoin: miter; stroke-linecap: square"/>
   </g>
   <g id="patch_6">
    <path d="M 494.186133 420.513813 
L 494.186133 62.189812 
" style="fill: none; stroke: #cccccc; stroke-width: 1.25; stroke-linejoin: miter; stroke-linecap: square"/>
   </g>
   <g id="patch_7">
    <path d="M 59.801133 420.513813 
L 494.186133 420.513813 
" style="fill: none; stroke: #cccccc; stroke-width: 1.25; stroke-linejoin: miter; stroke-linecap: square"/>
   </g>
   <g id="patch_8">
    <path d="M 59.801133 62.189812 
L 494.186133 62.189812 
" style="fill: none; stroke: #cccccc; stroke-width: 1.25; stroke-linejoin: miter; stroke-linecap: square"/>
   </g>
   <g id="text_10">
    <!-- *** -->
    <g transform="translate(262.981758 83.085733) scale(0.24 -0.24)">
     <defs>
      <path id="ArialMT-2a" d="M 200 3741 
L 344 4184 
Q 841 4009 1066 3881 
Q 1006 4447 1003 4659 
L 1456 4659 
Q 1447 4350 1384 3884 
Q 1706 4047 2122 4184 
L 2266 3741 
Q 1869 3609 1488 3566 
Q 1678 3400 2025 2975 
L 1650 2709 
Q 1469 2956 1222 3381 
Q 991 2941 816 2709 
L 447 2975 
Q 809 3422 966 3566 
Q 563 3644 200 3741 
z
" transform="scale(0.015625)"/>
     </defs>
     <use xlink:href="#ArialMT-2a"/>
     <use xlink:href="#ArialMT-2a" x="38.916016"/>
     <use xlink:href="#ArialMT-2a" x="77.832031"/>
    </g>
   </g>
   <g id="text_11">
    <!-- Average Confidence: -->
    <g style="fill: #262626" transform="translate(151.156758 26.855156) scale(0.27 -0.27)">
     <defs>
      <path id="ArialMT-43" d="M 3763 1606 
L 4369 1453 
Q 4178 706 3683 314 
Q 3188 -78 2472 -78 
Q 1731 -78 1267 223 
Q 803 525 561 1097 
Q 319 1669 319 2325 
Q 319 3041 592 3573 
Q 866 4106 1370 4382 
Q 1875 4659 2481 4659 
Q 3169 4659 3637 4309 
Q 4106 3959 4291 3325 
L 3694 3184 
Q 3534 3684 3231 3912 
Q 2928 4141 2469 4141 
Q 1941 4141 1586 3887 
Q 1231 3634 1087 3207 
Q 944 2781 944 2328 
Q 944 1744 1114 1308 
Q 1284 872 1643 656 
Q 2003 441 2422 441 
Q 2931 441 3284 734 
Q 3638 1028 3763 1606 
z
" transform="scale(0.015625)"/>
      <path id="ArialMT-66" d="M 556 0 
L 556 2881 
L 59 2881 
L 59 3319 
L 556 3319 
L 556 3672 
Q 556 4006 616 4169 
Q 697 4388 901 4523 
Q 1106 4659 1475 4659 
Q 1713 4659 2000 4603 
L 1916 4113 
Q 1741 4144 1584 4144 
Q 1328 4144 1222 4034 
Q 1116 3925 1116 3625 
L 1116 3319 
L 1763 3319 
L 1763 2881 
L 1116 2881 
L 1116 0 
L 556 0 
z
" transform="scale(0.015625)"/>
      <path id="ArialMT-3a" d="M 578 2678 
L 578 3319 
L 1219 3319 
L 1219 2678 
L 578 2678 
z
M 578 0 
L 578 641 
L 1219 641 
L 1219 0 
L 578 0 
z
" transform="scale(0.015625)"/>
     </defs>
     <use xlink:href="#ArialMT-41"/>
     <use xlink:href="#ArialMT-76" x="64.949219"/>
     <use xlink:href="#ArialMT-65" x="114.949219"/>
     <use xlink:href="#ArialMT-72" x="170.564453"/>
     <use xlink:href="#ArialMT-61" x="203.865234"/>
     <use xlink:href="#ArialMT-67" x="259.480469"/>
     <use xlink:href="#ArialMT-65" x="315.095703"/>
     <use xlink:href="#ArialMT-20" x="370.710938"/>
     <use xlink:href="#ArialMT-43" x="398.494141"/>
     <use xlink:href="#ArialMT-6f" x="470.710938"/>
     <use xlink:href="#ArialMT-6e" x="526.326172"/>
     <use xlink:href="#ArialMT-66" x="581.941406"/>
     <use xlink:href="#ArialMT-69" x="609.724609"/>
     <use xlink:href="#ArialMT-64" x="631.941406"/>
     <use xlink:href="#ArialMT-65" x="687.556641"/>
     <use xlink:href="#ArialMT-6e" x="743.171875"/>
     <use xlink:href="#ArialMT-63" x="798.787109"/>
     <use xlink:href="#ArialMT-65" x="848.787109"/>
     <use xlink:href="#ArialMT-3a" x="904.402344"/>
    </g>
    <!-- Identifying real as real ($p_{corr}$&lt;.001) -->
    <g style="fill: #262626" transform="translate(70.308633 56.189812) scale(0.27 -0.27)">
     <defs>
      <path id="ArialMT-49" d="M 597 0 
L 597 4581 
L 1203 4581 
L 1203 0 
L 597 0 
z
" transform="scale(0.015625)"/>
      <path id="ArialMT-73" d="M 197 991 
L 753 1078 
Q 800 744 1014 566 
Q 1228 388 1613 388 
Q 2000 388 2187 545 
Q 2375 703 2375 916 
Q 2375 1106 2209 1216 
Q 2094 1291 1634 1406 
Q 1016 1563 777 1677 
Q 538 1791 414 1992 
Q 291 2194 291 2438 
Q 291 2659 392 2848 
Q 494 3038 669 3163 
Q 800 3259 1026 3326 
Q 1253 3394 1513 3394 
Q 1903 3394 2198 3281 
Q 2494 3169 2634 2976 
Q 2775 2784 2828 2463 
L 2278 2388 
Q 2241 2644 2061 2787 
Q 1881 2931 1553 2931 
Q 1166 2931 1000 2803 
Q 834 2675 834 2503 
Q 834 2394 903 2306 
Q 972 2216 1119 2156 
Q 1203 2125 1616 2013 
Q 2213 1853 2448 1751 
Q 2684 1650 2818 1456 
Q 2953 1263 2953 975 
Q 2953 694 2789 445 
Q 2625 197 2315 61 
Q 2006 -75 1616 -75 
Q 969 -75 630 194 
Q 291 463 197 991 
z
" transform="scale(0.015625)"/>
      <path id="ArialMT-28" d="M 1497 -1347 
Q 1031 -759 709 28 
Q 388 816 388 1659 
Q 388 2403 628 3084 
Q 909 3875 1497 4659 
L 1900 4659 
Q 1522 4009 1400 3731 
Q 1209 3300 1100 2831 
Q 966 2247 966 1656 
Q 966 153 1900 -1347 
L 1497 -1347 
z
" transform="scale(0.015625)"/>
      <path id="DejaVuSans-Oblique-70" d="M 3175 2156 
Q 3175 2616 2975 2859 
Q 2775 3103 2400 3103 
Q 2144 3103 1911 2972 
Q 1678 2841 1497 2591 
Q 1319 2344 1212 1994 
Q 1106 1644 1106 1300 
Q 1106 863 1306 627 
Q 1506 391 1875 391 
Q 2147 391 2380 519 
Q 2613 647 2778 891 
Q 2956 1147 3065 1494 
Q 3175 1841 3175 2156 
z
M 1394 2969 
Q 1625 3272 1939 3428 
Q 2253 3584 2638 3584 
Q 3175 3584 3472 3232 
Q 3769 2881 3769 2247 
Q 3769 1728 3584 1258 
Q 3400 788 3053 416 
Q 2822 169 2531 39 
Q 2241 -91 1919 -91 
Q 1547 -91 1294 64 
Q 1041 219 916 525 
L 556 -1331 
L -19 -1331 
L 922 3500 
L 1497 3500 
L 1394 2969 
z
" transform="scale(0.015625)"/>
      <path id="DejaVuSans-Oblique-63" d="M 3431 3366 
L 3316 2797 
Q 3109 2947 2876 3022 
Q 2644 3097 2394 3097 
Q 2119 3097 1870 3000 
Q 1622 2903 1453 2725 
Q 1184 2453 1037 2087 
Q 891 1722 891 1331 
Q 891 859 1127 628 
Q 1363 397 1844 397 
Q 2081 397 2348 469 
Q 2616 541 2906 684 
L 2797 116 
Q 2547 13 2283 -39 
Q 2019 -91 1741 -91 
Q 1044 -91 669 257 
Q 294 606 294 1253 
Q 294 1797 489 2255 
Q 684 2713 1069 3078 
Q 1331 3328 1684 3456 
Q 2038 3584 2456 3584 
Q 2700 3584 2940 3529 
Q 3181 3475 3431 3366 
z
" transform="scale(0.015625)"/>
      <path id="DejaVuSans-Oblique-6f" d="M 1625 -91 
Q 1009 -91 651 289 
Q 294 669 294 1325 
Q 294 1706 417 2101 
Q 541 2497 738 2766 
Q 1047 3184 1428 3384 
Q 1809 3584 2291 3584 
Q 2888 3584 3255 3212 
Q 3622 2841 3622 2241 
Q 3622 1825 3500 1412 
Q 3378 1000 3181 728 
Q 2875 309 2494 109 
Q 2113 -91 1625 -91 
z
M 891 1344 
Q 891 869 1089 633 
Q 1288 397 1691 397 
Q 2269 397 2648 901 
Q 3028 1406 3028 2181 
Q 3028 2634 2825 2865 
Q 2622 3097 2228 3097 
Q 1903 3097 1650 2945 
Q 1397 2794 1197 2484 
Q 1050 2253 970 1956 
Q 891 1659 891 1344 
z
" transform="scale(0.015625)"/>
      <path id="DejaVuSans-Oblique-72" d="M 2853 2969 
Q 2766 3016 2653 3041 
Q 2541 3066 2413 3066 
Q 1953 3066 1609 2717 
Q 1266 2369 1153 1784 
L 800 0 
L 225 0 
L 909 3500 
L 1484 3500 
L 1375 2956 
Q 1603 3259 1920 3421 
Q 2238 3584 2597 3584 
Q 2691 3584 2781 3573 
Q 2872 3563 2963 3538 
L 2853 2969 
z
" transform="scale(0.015625)"/>
      <path id="ArialMT-3c" d="M 350 2003 
L 350 2528 
L 3384 3809 
L 3384 3250 
L 978 2263 
L 3384 1266 
L 3384 706 
L 350 2003 
z
" transform="scale(0.015625)"/>
      <path id="ArialMT-2e" d="M 581 0 
L 581 641 
L 1222 641 
L 1222 0 
L 581 0 
z
" transform="scale(0.015625)"/>
      <path id="ArialMT-29" d="M 791 -1347 
L 388 -1347 
Q 1322 153 1322 1656 
Q 1322 2244 1188 2822 
Q 1081 3291 891 3722 
Q 769 4003 388 4659 
L 791 4659 
Q 1378 3875 1659 3084 
Q 1900 2403 1900 1659 
Q 1900 816 1576 28 
Q 1253 -759 791 -1347 
z
" transform="scale(0.015625)"/>
     </defs>
     <use xlink:href="#ArialMT-49" transform="translate(0 0.203125)"/>
     <use xlink:href="#ArialMT-64" transform="translate(27.783203 0.203125)"/>
     <use xlink:href="#ArialMT-65" transform="translate(83.398438 0.203125)"/>
     <use xlink:href="#ArialMT-6e" transform="translate(139.013672 0.203125)"/>
     <use xlink:href="#ArialMT-74" transform="translate(194.628906 0.203125)"/>
     <use xlink:href="#ArialMT-69" transform="translate(222.412109 0.203125)"/>
     <use xlink:href="#ArialMT-66" transform="translate(244.628906 0.203125)"/>
     <use xlink:href="#ArialMT-79" transform="translate(272.412109 0.203125)"/>
     <use xlink:href="#ArialMT-69" transform="translate(322.412109 0.203125)"/>
     <use xlink:href="#ArialMT-6e" transform="translate(344.628906 0.203125)"/>
     <use xlink:href="#ArialMT-67" transform="translate(400.244141 0.203125)"/>
     <use xlink:href="#ArialMT-20" transform="translate(455.859375 0.203125)"/>
     <use xlink:href="#ArialMT-72" transform="translate(483.642578 0.203125)"/>
     <use xlink:href="#ArialMT-65" transform="translate(516.943359 0.203125)"/>
     <use xlink:href="#ArialMT-61" transform="translate(572.558594 0.203125)"/>
     <use xlink:href="#ArialMT-6c" transform="translate(628.173828 0.203125)"/>
     <use xlink:href="#ArialMT-20" transform="translate(650.390625 0.203125)"/>
     <use xlink:href="#ArialMT-61" transform="translate(678.173828 0.203125)"/>
     <use xlink:href="#ArialMT-73" transform="translate(733.789062 0.203125)"/>
     <use xlink:href="#ArialMT-20" transform="translate(783.789062 0.203125)"/>
     <use xlink:href="#ArialMT-72" transform="translate(811.572266 0.203125)"/>
     <use xlink:href="#ArialMT-65" transform="translate(844.873047 0.203125)"/>
     <use xlink:href="#ArialMT-61" transform="translate(900.488281 0.203125)"/>
     <use xlink:href="#ArialMT-6c" transform="translate(956.103516 0.203125)"/>
     <use xlink:href="#ArialMT-20" transform="translate(978.320312 0.203125)"/>
     <use xlink:href="#ArialMT-28" transform="translate(1006.103516 0.203125)"/>
     <use xlink:href="#DejaVuSans-Oblique-70" transform="translate(1039.404297 0.203125)"/>
     <use xlink:href="#DejaVuSans-Oblique-63" transform="translate(1102.880859 -16.203125) scale(0.7)"/>
     <use xlink:href="#DejaVuSans-Oblique-6f" transform="translate(1141.367188 -16.203125) scale(0.7)"/>
     <use xlink:href="#DejaVuSans-Oblique-72" transform="translate(1184.194336 -16.203125) scale(0.7)"/>
     <use xlink:href="#DejaVuSans-Oblique-72" transform="translate(1212.973633 -16.203125) scale(0.7)"/>
     <use xlink:href="#ArialMT-3c" transform="translate(1244.487305 0.203125)"/>
     <use xlink:href="#ArialMT-2e" transform="translate(1302.885742 0.203125)"/>
     <use xlink:href="#ArialMT-30" transform="translate(1330.668945 0.203125)"/>
     <use xlink:href="#ArialMT-30" transform="translate(1386.28418 0.203125)"/>
     <use xlink:href="#ArialMT-31" transform="translate(1441.899414 0.203125)"/>
     <use xlink:href="#ArialMT-29" transform="translate(1497.514648 0.203125)"/>
    </g>
   </g>
  </g>
  <g id="axes_2">
   <g id="patch_9">
    <path d="M 523.346133 420.513813 
L 957.731133 420.513813 
L 957.731133 62.189812 
L 523.346133 62.189812 
z
" style="fill: #ffffff"/>
   </g>
   <g id="matplotlib.axis_3">
    <g id="xtick_3">
     <g id="text_12">
      <!-- old -->
      <g style="fill: #262626" transform="translate(614.33256 447.729398) scale(0.2475 -0.2475)">
       <use xlink:href="#ArialMT-6f"/>
       <use xlink:href="#ArialMT-6c" x="55.615234"/>
       <use xlink:href="#ArialMT-64" x="77.832031"/>
      </g>
     </g>
    </g>
    <g id="xtick_4">
     <g id="text_13">
      <!-- young -->
      <g style="fill: #262626" transform="translate(816.517674 447.439359) scale(0.2475 -0.2475)">
       <use xlink:href="#ArialMT-79"/>
       <use xlink:href="#ArialMT-6f" x="50"/>
       <use xlink:href="#ArialMT-75" x="105.615234"/>
       <use xlink:href="#ArialMT-6e" x="161.230469"/>
       <use xlink:href="#ArialMT-67" x="216.845703"/>
      </g>
     </g>
    </g>
   </g>
   <g id="matplotlib.axis_4">
    <g id="ytick_7">
     <g id="line2d_14">
      <path d="M 523.346133 420.513813 
L 957.731133 420.513813 
" clip-path="url(#p1777ee2600)" style="fill: none; stroke: #cccccc; stroke-linecap: round"/>
     </g>
    </g>
    <g id="ytick_8">
     <g id="line2d_15">
      <path d="M 523.346133 348.849013 
L 957.731133 348.849013 
" clip-path="url(#p1777ee2600)" style="fill: none; stroke: #cccccc; stroke-linecap: round"/>
     </g>
    </g>
    <g id="ytick_9">
     <g id="line2d_16">
      <path d="M 523.346133 277.184213 
L 957.731133 277.184213 
" clip-path="url(#p1777ee2600)" style="fill: none; stroke: #cccccc; stroke-linecap: round"/>
     </g>
    </g>
    <g id="ytick_10">
     <g id="line2d_17">
      <path d="M 523.346133 205.519412 
L 957.731133 205.519412 
" clip-path="url(#p1777ee2600)" style="fill: none; stroke: #cccccc; stroke-linecap: round"/>
     </g>
    </g>
    <g id="ytick_11">
     <g id="line2d_18">
      <path d="M 523.346133 133.854612 
L 957.731133 133.854612 
" clip-path="url(#p1777ee2600)" style="fill: none; stroke: #cccccc; stroke-linecap: round"/>
     </g>
    </g>
    <g id="ytick_12">
     <g id="line2d_19">
      <path d="M 523.346133 62.189812 
L 957.731133 62.189812 
" clip-path="url(#p1777ee2600)" style="fill: none; stroke: #cccccc; stroke-linecap: round"/>
     </g>
    </g>
   </g>
   <g id="patch_10">
    <path d="M 543.090906 420.513813 
L 718.599996 420.513813 
L 718.599996 199.004431 
L 543.090906 199.004431 
z
" clip-path="url(#p1777ee2600)" style="fill: #68afd7; stroke: #ffffff; stroke-linejoin: miter"/>
   </g>
   <g id="patch_11">
    <path d="M 762.477269 420.513813 
L 937.98636 420.513813 
L 937.98636 157.742879 
L 762.477269 157.742879 
z
" clip-path="url(#p1777ee2600)" style="fill: #ba611b; stroke: #ffffff; stroke-linejoin: miter"/>
   </g>
   <g id="line2d_20">
    <path d="M 630.845451 208.892842 
L 630.845451 189.116019 
" clip-path="url(#p1777ee2600)" style="fill: none; stroke: #424242; stroke-width: 2.7; stroke-linecap: round"/>
   </g>
   <g id="line2d_21">
    <path d="M 619.876133 208.892842 
L 641.814769 208.892842 
" clip-path="url(#p1777ee2600)" style="fill: none; stroke: #424242; stroke-width: 2.7; stroke-linecap: round"/>
   </g>
   <g id="line2d_22">
    <path d="M 619.876133 189.116019 
L 641.814769 189.116019 
" clip-path="url(#p1777ee2600)" style="fill: none; stroke: #424242; stroke-width: 2.7; stroke-linecap: round"/>
   </g>
   <g id="line2d_23">
    <path d="M 850.231815 167.291448 
L 850.231815 148.19431 
" clip-path="url(#p1777ee2600)" style="fill: none; stroke: #424242; stroke-width: 2.7; stroke-linecap: round"/>
   </g>
   <g id="line2d_24">
    <path d="M 839.262496 167.291448 
L 861.201133 167.291448 
" clip-path="url(#p1777ee2600)" style="fill: none; stroke: #424242; stroke-width: 2.7; stroke-linecap: round"/>
   </g>
   <g id="line2d_25">
    <path d="M 839.262496 148.19431 
L 861.201133 148.19431 
" clip-path="url(#p1777ee2600)" style="fill: none; stroke: #424242; stroke-width: 2.7; stroke-linecap: round"/>
   </g>
   <g id="line2d_26">
    <path d="M 630.845451 126.688132 
L 630.845451 90.855732 
L 850.231815 90.855732 
L 850.231815 126.688132 
" clip-path="url(#p1777ee2600)" style="fill: none; stroke: #000000; stroke-width: 1.5; stroke-linecap: round"/>
   </g>
   <g id="patch_12">
    <path d="M 523.346133 420.513813 
L 523.346133 62.189812 
" style="fill: none; stroke: #cccccc; stroke-width: 1.25; stroke-linejoin: miter; stroke-linecap: square"/>
   </g>
   <g id="patch_13">
    <path d="M 957.731133 420.513813 
L 957.731133 62.189812 
" style="fill: none; stroke: #cccccc; stroke-width: 1.25; stroke-linejoin: miter; stroke-linecap: square"/>
   </g>
   <g id="patch_14">
    <path d="M 523.346133 420.513813 
L 957.731133 420.513813 
" style="fill: none; stroke: #cccccc; stroke-width: 1.25; stroke-linejoin: miter; stroke-linecap: square"/>
   </g>
   <g id="patch_15">
    <path d="M 523.346133 62.189812 
L 957.731133 62.189812 
" style="fill: none; stroke: #cccccc; stroke-width: 1.25; stroke-linejoin: miter; stroke-linecap: square"/>
   </g>
   <g id="text_14">
    <!-- ** -->
    <g transform="translate(731.197383 83.085733) scale(0.24 -0.24)">
     <use xlink:href="#ArialMT-2a"/>
     <use xlink:href="#ArialMT-2a" x="38.916016"/>
    </g>
   </g>
   <g id="text_15">
    <!-- Average Confidence: -->
    <g style="fill: #262626" transform="translate(614.701758 26.855156) scale(0.27 -0.27)">
     <use xlink:href="#ArialMT-41"/>
     <use xlink:href="#ArialMT-76" x="64.949219"/>
     <use xlink:href="#ArialMT-65" x="114.949219"/>
     <use xlink:href="#ArialMT-72" x="170.564453"/>
     <use xlink:href="#ArialMT-61" x="203.865234"/>
     <use xlink:href="#ArialMT-67" x="259.480469"/>
     <use xlink:href="#ArialMT-65" x="315.095703"/>
     <use xlink:href="#ArialMT-20" x="370.710938"/>
     <use xlink:href="#ArialMT-43" x="398.494141"/>
     <use xlink:href="#ArialMT-6f" x="470.710938"/>
     <use xlink:href="#ArialMT-6e" x="526.326172"/>
     <use xlink:href="#ArialMT-66" x="581.941406"/>
     <use xlink:href="#ArialMT-69" x="609.724609"/>
     <use xlink:href="#ArialMT-64" x="631.941406"/>
     <use xlink:href="#ArialMT-65" x="687.556641"/>
     <use xlink:href="#ArialMT-6e" x="743.171875"/>
     <use xlink:href="#ArialMT-63" x="798.787109"/>
     <use xlink:href="#ArialMT-65" x="848.787109"/>
     <use xlink:href="#ArialMT-3a" x="904.402344"/>
    </g>
    <!-- Identifying artificial as artificial ($p_{corr}$=.004) -->
    <g style="fill: #262626" transform="translate(487.278633 56.189812) scale(0.27 -0.27)">
     <defs>
      <path id="ArialMT-3d" d="M 3381 2694 
L 356 2694 
L 356 3219 
L 3381 3219 
L 3381 2694 
z
M 3381 1303 
L 356 1303 
L 356 1828 
L 3381 1828 
L 3381 1303 
z
" transform="scale(0.015625)"/>
     </defs>
     <use xlink:href="#ArialMT-49" transform="translate(0 0.203125)"/>
     <use xlink:href="#ArialMT-64" transform="translate(27.783203 0.203125)"/>
     <use xlink:href="#ArialMT-65" transform="translate(83.398438 0.203125)"/>
     <use xlink:href="#ArialMT-6e" transform="translate(139.013672 0.203125)"/>
     <use xlink:href="#ArialMT-74" transform="translate(194.628906 0.203125)"/>
     <use xlink:href="#ArialMT-69" transform="translate(222.412109 0.203125)"/>
     <use xlink:href="#ArialMT-66" transform="translate(244.628906 0.203125)"/>
     <use xlink:href="#ArialMT-79" transform="translate(272.412109 0.203125)"/>
     <use xlink:href="#ArialMT-69" transform="translate(322.412109 0.203125)"/>
     <use xlink:href="#ArialMT-6e" transform="translate(344.628906 0.203125)"/>
     <use xlink:href="#ArialMT-67" transform="translate(400.244141 0.203125)"/>
     <use xlink:href="#ArialMT-20" transform="translate(455.859375 0.203125)"/>
     <use xlink:href="#ArialMT-61" transform="translate(483.642578 0.203125)"/>
     <use xlink:href="#ArialMT-72" transform="translate(539.257812 0.203125)"/>
     <use xlink:href="#ArialMT-74" transform="translate(572.558594 0.203125)"/>
     <use xlink:href="#ArialMT-69" transform="translate(600.341797 0.203125)"/>
     <use xlink:href="#ArialMT-66" transform="translate(622.558594 0.203125)"/>
     <use xlink:href="#ArialMT-69" transform="translate(650.341797 0.203125)"/>
     <use xlink:href="#ArialMT-63" transform="translate(672.558594 0.203125)"/>
     <use xlink:href="#ArialMT-69" transform="translate(722.558594 0.203125)"/>
     <use xlink:href="#ArialMT-61" transform="translate(744.775391 0.203125)"/>
     <use xlink:href="#ArialMT-6c" transform="translate(800.390625 0.203125)"/>
     <use xlink:href="#ArialMT-20" transform="translate(822.607422 0.203125)"/>
     <use xlink:href="#ArialMT-61" transform="translate(850.390625 0.203125)"/>
     <use xlink:href="#ArialMT-73" transform="translate(906.005859 0.203125)"/>
     <use xlink:href="#ArialMT-20" transform="translate(956.005859 0.203125)"/>
     <use xlink:href="#ArialMT-61" transform="translate(983.789062 0.203125)"/>
     <use xlink:href="#ArialMT-72" transform="translate(1039.404297 0.203125)"/>
     <use xlink:href="#ArialMT-74" transform="translate(1072.705078 0.203125)"/>
     <use xlink:href="#ArialMT-69" transform="translate(1100.488281 0.203125)"/>
     <use xlink:href="#ArialMT-66" transform="translate(1122.705078 0.203125)"/>
     <use xlink:href="#ArialMT-69" transform="translate(1150.488281 0.203125)"/>
     <use xlink:href="#ArialMT-63" transform="translate(1172.705078 0.203125)"/>
     <use xlink:href="#ArialMT-69" transform="translate(1222.705078 0.203125)"/>
     <use xlink:href="#ArialMT-61" transform="translate(1244.921875 0.203125)"/>
     <use xlink:href="#ArialMT-6c" transform="translate(1300.537109 0.203125)"/>
     <use xlink:href="#ArialMT-20" transform="translate(1322.753906 0.203125)"/>
     <use xlink:href="#ArialMT-28" transform="translate(1350.537109 0.203125)"/>
     <use xlink:href="#DejaVuSans-Oblique-70" transform="translate(1383.837891 0.203125)"/>
     <use xlink:href="#DejaVuSans-Oblique-63" transform="translate(1447.314453 -16.203125) scale(0.7)"/>
     <use xlink:href="#DejaVuSans-Oblique-6f" transform="translate(1485.800781 -16.203125) scale(0.7)"/>
     <use xlink:href="#DejaVuSans-Oblique-72" transform="translate(1528.62793 -16.203125) scale(0.7)"/>
     <use xlink:href="#DejaVuSans-Oblique-72" transform="translate(1557.407227 -16.203125) scale(0.7)"/>
     <use xlink:href="#ArialMT-3d" transform="translate(1588.920898 0.203125)"/>
     <use xlink:href="#ArialMT-2e" transform="translate(1647.319336 0.203125)"/>
     <use xlink:href="#ArialMT-30" transform="translate(1675.102539 0.203125)"/>
     <use xlink:href="#ArialMT-30" transform="translate(1730.717773 0.203125)"/>
     <use xlink:href="#ArialMT-34" transform="translate(1786.333008 0.203125)"/>
     <use xlink:href="#ArialMT-29" transform="translate(1841.948242 0.203125)"/>
    </g>
   </g>
  </g>
  <g id="text_16">
   <!-- Age -->
   <g style="fill: #262626" transform="translate(458.87168 481.493812) scale(0.27 -0.27)">
    <use xlink:href="#ArialMT-41"/>
    <use xlink:href="#ArialMT-67" x="66.699219"/>
    <use xlink:href="#ArialMT-65" x="122.314453"/>
   </g>
  </g>
 </g>
 <defs>
  <clipPath id="p2406b397bb">
   <rect x="59.801133" y="62.189812" width="434.385" height="358.324"/>
  </clipPath>
  <clipPath id="p1777ee2600">
   <rect x="523.346133" y="62.189812" width="434.385" height="358.324"/>
  </clipPath>
 </defs>
</svg>
