<?xml version="1.0" encoding="utf-8" standalone="no"?>
<!DOCTYPE svg PUBLIC "-//W3C//DTD SVG 1.1//EN"
  "http://www.w3.org/Graphics/SVG/1.1/DTD/svg11.dtd">
<svg xmlns:xlink="http://www.w3.org/1999/xlink" width="1396.218164pt" height="461.873109pt" viewBox="0 0 1396.218164 461.873109" xmlns="http://www.w3.org/2000/svg" version="1.1">
 <metadata>
  <rdf:RDF xmlns:dc="http://purl.org/dc/elements/1.1/" xmlns:cc="http://creativecommons.org/ns#" xmlns:rdf="http://www.w3.org/1999/02/22-rdf-syntax-ns#">
   <cc:Work>
    <dc:type rdf:resource="http://purl.org/dc/dcmitype/StillImage"/>
    <dc:date>2024-09-03T21:27:07.501953</dc:date>
    <dc:format>image/svg+xml</dc:format>
    <dc:creator>
     <cc:Agent>
      <dc:title>Matplotlib v3.7.2, https://matplotlib.org/</dc:title>
     </cc:Agent>
    </dc:creator>
   </cc:Work>
  </rdf:RDF>
 </metadata>
 <defs>
  <style type="text/css">*{stroke-linejoin: round; stroke-linecap: butt}</style>
 </defs>
 <g id="figure_1">
  <g id="patch_1">
   <path d="M 0 461.873109 
L 1396.218164 461.873109 
L 1396.218164 0 
L 0 0 
z
" style="fill: #ffffff"/>
  </g>
  <g id="axes_1">
   <g id="patch_2">
    <path d="M 93.558164 392.938031 
L 487.174046 392.938031 
L 487.174046 61.478531 
L 93.558164 61.478531 
z
" style="fill: #ffffff"/>
   </g>
   <g id="matplotlib.axis_1">
    <g id="xtick_1">
     <g id="text_1">
      <!-- real -->
      <g style="fill: #262626" transform="translate(171.328756 420.153617) scale(0.2475 -0.2475)">
       <defs>
        <path id="ArialMT-72" d="M 416 0 
L 416 3319 
L 922 3319 
L 922 2816 
Q 1116 3169 1280 3281 
Q 1444 3394 1641 3394 
Q 1925 3394 2219 3213 
L 2025 2691 
Q 1819 2813 1613 2813 
Q 1428 2813 1281 2702 
Q 1134 2591 1072 2394 
Q 978 2094 978 1738 
L 978 0 
L 416 0 
z
" transform="scale(0.015625)"/>
        <path id="ArialMT-65" d="M 2694 1069 
L 3275 997 
Q 3138 488 2766 206 
Q 2394 -75 1816 -75 
Q 1088 -75 661 373 
Q 234 822 234 1631 
Q 234 2469 665 2931 
Q 1097 3394 1784 3394 
Q 2450 3394 2872 2941 
Q 3294 2488 3294 1666 
Q 3294 1616 3291 1516 
L 816 1516 
Q 847 969 1125 678 
Q 1403 388 1819 388 
Q 2128 388 2347 550 
Q 2566 713 2694 1069 
z
M 847 1978 
L 2700 1978 
Q 2663 2397 2488 2606 
Q 2219 2931 1791 2931 
Q 1403 2931 1139 2672 
Q 875 2413 847 1978 
z
" transform="scale(0.015625)"/>
        <path id="ArialMT-61" d="M 2588 409 
Q 2275 144 1986 34 
Q 1697 -75 1366 -75 
Q 819 -75 525 192 
Q 231 459 231 875 
Q 231 1119 342 1320 
Q 453 1522 633 1644 
Q 813 1766 1038 1828 
Q 1203 1872 1538 1913 
Q 2219 1994 2541 2106 
Q 2544 2222 2544 2253 
Q 2544 2597 2384 2738 
Q 2169 2928 1744 2928 
Q 1347 2928 1158 2789 
Q 969 2650 878 2297 
L 328 2372 
Q 403 2725 575 2942 
Q 747 3159 1072 3276 
Q 1397 3394 1825 3394 
Q 2250 3394 2515 3294 
Q 2781 3194 2906 3042 
Q 3031 2891 3081 2659 
Q 3109 2516 3109 2141 
L 3109 1391 
Q 3109 606 3145 398 
Q 3181 191 3288 0 
L 2700 0 
Q 2613 175 2588 409 
z
M 2541 1666 
Q 2234 1541 1622 1453 
Q 1275 1403 1131 1340 
Q 988 1278 909 1158 
Q 831 1038 831 891 
Q 831 666 1001 516 
Q 1172 366 1500 366 
Q 1825 366 2078 508 
Q 2331 650 2450 897 
Q 2541 1088 2541 1459 
L 2541 1666 
z
" transform="scale(0.015625)"/>
        <path id="ArialMT-6c" d="M 409 0 
L 409 4581 
L 972 4581 
L 972 0 
L 409 0 
z
" transform="scale(0.015625)"/>
       </defs>
       <use xlink:href="#ArialMT-72"/>
       <use xlink:href="#ArialMT-65" x="33.300781"/>
       <use xlink:href="#ArialMT-61" x="88.916016"/>
       <use xlink:href="#ArialMT-6c" x="144.53125"/>
      </g>
     </g>
    </g>
    <g id="xtick_2">
     <g id="text_2">
      <!-- artificially generated -->
      <g style="fill: #262626" transform="translate(278.719588 420.455258) scale(0.2475 -0.2475)">
       <defs>
        <path id="ArialMT-74" d="M 1650 503 
L 1731 6 
Q 1494 -44 1306 -44 
Q 1000 -44 831 53 
Q 663 150 594 308 
Q 525 466 525 972 
L 525 2881 
L 113 2881 
L 113 3319 
L 525 3319 
L 525 4141 
L 1084 4478 
L 1084 3319 
L 1650 3319 
L 1650 2881 
L 1084 2881 
L 1084 941 
Q 1084 700 1114 631 
Q 1144 563 1211 522 
Q 1278 481 1403 481 
Q 1497 481 1650 503 
z
" transform="scale(0.015625)"/>
        <path id="ArialMT-69" d="M 425 3934 
L 425 4581 
L 988 4581 
L 988 3934 
L 425 3934 
z
M 425 0 
L 425 3319 
L 988 3319 
L 988 0 
L 425 0 
z
" transform="scale(0.015625)"/>
        <path id="ArialMT-66" d="M 556 0 
L 556 2881 
L 59 2881 
L 59 3319 
L 556 3319 
L 556 3672 
Q 556 4006 616 4169 
Q 697 4388 901 4523 
Q 1106 4659 1475 4659 
Q 1713 4659 2000 4603 
L 1916 4113 
Q 1741 4144 1584 4144 
Q 1328 4144 1222 4034 
Q 1116 3925 1116 3625 
L 1116 3319 
L 1763 3319 
L 1763 2881 
L 1116 2881 
L 1116 0 
L 556 0 
z
" transform="scale(0.015625)"/>
        <path id="ArialMT-63" d="M 2588 1216 
L 3141 1144 
Q 3050 572 2676 248 
Q 2303 -75 1759 -75 
Q 1078 -75 664 370 
Q 250 816 250 1647 
Q 250 2184 428 2587 
Q 606 2991 970 3192 
Q 1334 3394 1763 3394 
Q 2303 3394 2647 3120 
Q 2991 2847 3088 2344 
L 2541 2259 
Q 2463 2594 2264 2762 
Q 2066 2931 1784 2931 
Q 1359 2931 1093 2626 
Q 828 2322 828 1663 
Q 828 994 1084 691 
Q 1341 388 1753 388 
Q 2084 388 2306 591 
Q 2528 794 2588 1216 
z
" transform="scale(0.015625)"/>
        <path id="ArialMT-79" d="M 397 -1278 
L 334 -750 
Q 519 -800 656 -800 
Q 844 -800 956 -737 
Q 1069 -675 1141 -563 
Q 1194 -478 1313 -144 
Q 1328 -97 1363 -6 
L 103 3319 
L 709 3319 
L 1400 1397 
Q 1534 1031 1641 628 
Q 1738 1016 1872 1384 
L 2581 3319 
L 3144 3319 
L 1881 -56 
Q 1678 -603 1566 -809 
Q 1416 -1088 1222 -1217 
Q 1028 -1347 759 -1347 
Q 597 -1347 397 -1278 
z
" transform="scale(0.015625)"/>
        <path id="ArialMT-20" transform="scale(0.015625)"/>
        <path id="ArialMT-67" d="M 319 -275 
L 866 -356 
Q 900 -609 1056 -725 
Q 1266 -881 1628 -881 
Q 2019 -881 2231 -725 
Q 2444 -569 2519 -288 
Q 2563 -116 2559 434 
Q 2191 0 1641 0 
Q 956 0 581 494 
Q 206 988 206 1678 
Q 206 2153 378 2554 
Q 550 2956 876 3175 
Q 1203 3394 1644 3394 
Q 2231 3394 2613 2919 
L 2613 3319 
L 3131 3319 
L 3131 450 
Q 3131 -325 2973 -648 
Q 2816 -972 2473 -1159 
Q 2131 -1347 1631 -1347 
Q 1038 -1347 672 -1080 
Q 306 -813 319 -275 
z
M 784 1719 
Q 784 1066 1043 766 
Q 1303 466 1694 466 
Q 2081 466 2343 764 
Q 2606 1063 2606 1700 
Q 2606 2309 2336 2618 
Q 2066 2928 1684 2928 
Q 1309 2928 1046 2623 
Q 784 2319 784 1719 
z
" transform="scale(0.015625)"/>
        <path id="ArialMT-6e" d="M 422 0 
L 422 3319 
L 928 3319 
L 928 2847 
Q 1294 3394 1984 3394 
Q 2284 3394 2536 3286 
Q 2788 3178 2913 3003 
Q 3038 2828 3088 2588 
Q 3119 2431 3119 2041 
L 3119 0 
L 2556 0 
L 2556 2019 
Q 2556 2363 2490 2533 
Q 2425 2703 2258 2804 
Q 2091 2906 1866 2906 
Q 1506 2906 1245 2678 
Q 984 2450 984 1813 
L 984 0 
L 422 0 
z
" transform="scale(0.015625)"/>
        <path id="ArialMT-64" d="M 2575 0 
L 2575 419 
Q 2259 -75 1647 -75 
Q 1250 -75 917 144 
Q 584 363 401 755 
Q 219 1147 219 1656 
Q 219 2153 384 2558 
Q 550 2963 881 3178 
Q 1213 3394 1622 3394 
Q 1922 3394 2156 3267 
Q 2391 3141 2538 2938 
L 2538 4581 
L 3097 4581 
L 3097 0 
L 2575 0 
z
M 797 1656 
Q 797 1019 1065 703 
Q 1334 388 1700 388 
Q 2069 388 2326 689 
Q 2584 991 2584 1609 
Q 2584 2291 2321 2609 
Q 2059 2928 1675 2928 
Q 1300 2928 1048 2622 
Q 797 2316 797 1656 
z
" transform="scale(0.015625)"/>
       </defs>
       <use xlink:href="#ArialMT-61"/>
       <use xlink:href="#ArialMT-72" x="55.615234"/>
       <use xlink:href="#ArialMT-74" x="88.916016"/>
       <use xlink:href="#ArialMT-69" x="116.699219"/>
       <use xlink:href="#ArialMT-66" x="138.916016"/>
       <use xlink:href="#ArialMT-69" x="166.699219"/>
       <use xlink:href="#ArialMT-63" x="188.916016"/>
       <use xlink:href="#ArialMT-69" x="238.916016"/>
       <use xlink:href="#ArialMT-61" x="261.132812"/>
       <use xlink:href="#ArialMT-6c" x="316.748047"/>
       <use xlink:href="#ArialMT-6c" x="338.964844"/>
       <use xlink:href="#ArialMT-79" x="361.181641"/>
       <use xlink:href="#ArialMT-20" x="411.181641"/>
       <use xlink:href="#ArialMT-67" x="438.964844"/>
       <use xlink:href="#ArialMT-65" x="494.580078"/>
       <use xlink:href="#ArialMT-6e" x="550.195312"/>
       <use xlink:href="#ArialMT-65" x="605.810547"/>
       <use xlink:href="#ArialMT-72" x="661.425781"/>
       <use xlink:href="#ArialMT-61" x="694.726562"/>
       <use xlink:href="#ArialMT-74" x="750.341797"/>
       <use xlink:href="#ArialMT-65" x="778.125"/>
       <use xlink:href="#ArialMT-64" x="833.740234"/>
      </g>
     </g>
    </g>
    <g id="text_3">
     <!-- Image Authenticity -->
     <g style="fill: #262626" transform="translate(180.05634 448.990453) scale(0.27 -0.27)">
      <defs>
       <path id="ArialMT-49" d="M 597 0 
L 597 4581 
L 1203 4581 
L 1203 0 
L 597 0 
z
" transform="scale(0.015625)"/>
       <path id="ArialMT-6d" d="M 422 0 
L 422 3319 
L 925 3319 
L 925 2853 
Q 1081 3097 1340 3245 
Q 1600 3394 1931 3394 
Q 2300 3394 2536 3241 
Q 2772 3088 2869 2813 
Q 3263 3394 3894 3394 
Q 4388 3394 4653 3120 
Q 4919 2847 4919 2278 
L 4919 0 
L 4359 0 
L 4359 2091 
Q 4359 2428 4304 2576 
Q 4250 2725 4106 2815 
Q 3963 2906 3769 2906 
Q 3419 2906 3187 2673 
Q 2956 2441 2956 1928 
L 2956 0 
L 2394 0 
L 2394 2156 
Q 2394 2531 2256 2718 
Q 2119 2906 1806 2906 
Q 1569 2906 1367 2781 
Q 1166 2656 1075 2415 
Q 984 2175 984 1722 
L 984 0 
L 422 0 
z
" transform="scale(0.015625)"/>
       <path id="ArialMT-41" d="M -9 0 
L 1750 4581 
L 2403 4581 
L 4278 0 
L 3588 0 
L 3053 1388 
L 1138 1388 
L 634 0 
L -9 0 
z
M 1313 1881 
L 2866 1881 
L 2388 3150 
Q 2169 3728 2063 4100 
Q 1975 3659 1816 3225 
L 1313 1881 
z
" transform="scale(0.015625)"/>
       <path id="ArialMT-75" d="M 2597 0 
L 2597 488 
Q 2209 -75 1544 -75 
Q 1250 -75 995 37 
Q 741 150 617 320 
Q 494 491 444 738 
Q 409 903 409 1263 
L 409 3319 
L 972 3319 
L 972 1478 
Q 972 1038 1006 884 
Q 1059 663 1231 536 
Q 1403 409 1656 409 
Q 1909 409 2131 539 
Q 2353 669 2445 892 
Q 2538 1116 2538 1541 
L 2538 3319 
L 3100 3319 
L 3100 0 
L 2597 0 
z
" transform="scale(0.015625)"/>
       <path id="ArialMT-68" d="M 422 0 
L 422 4581 
L 984 4581 
L 984 2938 
Q 1378 3394 1978 3394 
Q 2347 3394 2619 3248 
Q 2891 3103 3008 2847 
Q 3125 2591 3125 2103 
L 3125 0 
L 2563 0 
L 2563 2103 
Q 2563 2525 2380 2717 
Q 2197 2909 1863 2909 
Q 1613 2909 1392 2779 
Q 1172 2650 1078 2428 
Q 984 2206 984 1816 
L 984 0 
L 422 0 
z
" transform="scale(0.015625)"/>
      </defs>
      <use xlink:href="#ArialMT-49"/>
      <use xlink:href="#ArialMT-6d" x="27.783203"/>
      <use xlink:href="#ArialMT-61" x="111.083984"/>
      <use xlink:href="#ArialMT-67" x="166.699219"/>
      <use xlink:href="#ArialMT-65" x="222.314453"/>
      <use xlink:href="#ArialMT-20" x="277.929688"/>
      <use xlink:href="#ArialMT-41" x="300.212891"/>
      <use xlink:href="#ArialMT-75" x="366.912109"/>
      <use xlink:href="#ArialMT-74" x="422.527344"/>
      <use xlink:href="#ArialMT-68" x="450.310547"/>
      <use xlink:href="#ArialMT-65" x="505.925781"/>
      <use xlink:href="#ArialMT-6e" x="561.541016"/>
      <use xlink:href="#ArialMT-74" x="617.15625"/>
      <use xlink:href="#ArialMT-69" x="644.939453"/>
      <use xlink:href="#ArialMT-63" x="667.15625"/>
      <use xlink:href="#ArialMT-69" x="717.15625"/>
      <use xlink:href="#ArialMT-74" x="739.373047"/>
      <use xlink:href="#ArialMT-79" x="767.15625"/>
     </g>
    </g>
   </g>
   <g id="matplotlib.axis_2">
    <g id="ytick_1">
     <g id="line2d_1">
      <path d="M 93.558164 392.938031 
L 487.174046 392.938031 
" clip-path="url(#pc2ea1125c4)" style="fill: none; stroke: #cccccc; stroke-linecap: round"/>
     </g>
     <g id="text_4">
      <!-- 0.0 -->
      <g style="fill: #262626" transform="translate(49.655664 401.795824) scale(0.2475 -0.2475)">
       <defs>
        <path id="ArialMT-30" d="M 266 2259 
Q 266 3072 433 3567 
Q 600 4063 929 4331 
Q 1259 4600 1759 4600 
Q 2128 4600 2406 4451 
Q 2684 4303 2865 4023 
Q 3047 3744 3150 3342 
Q 3253 2941 3253 2259 
Q 3253 1453 3087 958 
Q 2922 463 2592 192 
Q 2263 -78 1759 -78 
Q 1097 -78 719 397 
Q 266 969 266 2259 
z
M 844 2259 
Q 844 1131 1108 757 
Q 1372 384 1759 384 
Q 2147 384 2411 759 
Q 2675 1134 2675 2259 
Q 2675 3391 2411 3762 
Q 2147 4134 1753 4134 
Q 1366 4134 1134 3806 
Q 844 3388 844 2259 
z
" transform="scale(0.015625)"/>
        <path id="ArialMT-2e" d="M 581 0 
L 581 641 
L 1222 641 
L 1222 0 
L 581 0 
z
" transform="scale(0.015625)"/>
       </defs>
       <use xlink:href="#ArialMT-30"/>
       <use xlink:href="#ArialMT-2e" x="55.615234"/>
       <use xlink:href="#ArialMT-30" x="83.398438"/>
      </g>
     </g>
    </g>
    <g id="ytick_2">
     <g id="line2d_2">
      <path d="M 93.558164 337.694781 
L 487.174046 337.694781 
" clip-path="url(#pc2ea1125c4)" style="fill: none; stroke: #cccccc; stroke-linecap: round"/>
     </g>
     <g id="text_5">
      <!-- 2.5 -->
      <g style="fill: #262626" transform="translate(49.655664 346.552574) scale(0.2475 -0.2475)">
       <defs>
        <path id="ArialMT-32" d="M 3222 541 
L 3222 0 
L 194 0 
Q 188 203 259 391 
Q 375 700 629 1000 
Q 884 1300 1366 1694 
Q 2113 2306 2375 2664 
Q 2638 3022 2638 3341 
Q 2638 3675 2398 3904 
Q 2159 4134 1775 4134 
Q 1369 4134 1125 3890 
Q 881 3647 878 3216 
L 300 3275 
Q 359 3922 746 4261 
Q 1134 4600 1788 4600 
Q 2447 4600 2831 4234 
Q 3216 3869 3216 3328 
Q 3216 3053 3103 2787 
Q 2991 2522 2730 2228 
Q 2469 1934 1863 1422 
Q 1356 997 1212 845 
Q 1069 694 975 541 
L 3222 541 
z
" transform="scale(0.015625)"/>
        <path id="ArialMT-35" d="M 266 1200 
L 856 1250 
Q 922 819 1161 601 
Q 1400 384 1738 384 
Q 2144 384 2425 690 
Q 2706 997 2706 1503 
Q 2706 1984 2436 2262 
Q 2166 2541 1728 2541 
Q 1456 2541 1237 2417 
Q 1019 2294 894 2097 
L 366 2166 
L 809 4519 
L 3088 4519 
L 3088 3981 
L 1259 3981 
L 1013 2750 
Q 1425 3038 1878 3038 
Q 2478 3038 2890 2622 
Q 3303 2206 3303 1553 
Q 3303 931 2941 478 
Q 2500 -78 1738 -78 
Q 1113 -78 717 272 
Q 322 622 266 1200 
z
" transform="scale(0.015625)"/>
       </defs>
       <use xlink:href="#ArialMT-32"/>
       <use xlink:href="#ArialMT-2e" x="55.615234"/>
       <use xlink:href="#ArialMT-35" x="83.398438"/>
      </g>
     </g>
    </g>
    <g id="ytick_3">
     <g id="line2d_3">
      <path d="M 93.558164 282.451531 
L 487.174046 282.451531 
" clip-path="url(#pc2ea1125c4)" style="fill: none; stroke: #cccccc; stroke-linecap: round"/>
     </g>
     <g id="text_6">
      <!-- 5.0 -->
      <g style="fill: #262626" transform="translate(49.655664 291.309324) scale(0.2475 -0.2475)">
       <use xlink:href="#ArialMT-35"/>
       <use xlink:href="#ArialMT-2e" x="55.615234"/>
       <use xlink:href="#ArialMT-30" x="83.398438"/>
      </g>
     </g>
    </g>
    <g id="ytick_4">
     <g id="line2d_4">
      <path d="M 93.558164 227.208281 
L 487.174046 227.208281 
" clip-path="url(#pc2ea1125c4)" style="fill: none; stroke: #cccccc; stroke-linecap: round"/>
     </g>
     <g id="text_7">
      <!-- 7.5 -->
      <g style="fill: #262626" transform="translate(49.655664 236.066074) scale(0.2475 -0.2475)">
       <defs>
        <path id="ArialMT-37" d="M 303 3981 
L 303 4522 
L 3269 4522 
L 3269 4084 
Q 2831 3619 2401 2847 
Q 1972 2075 1738 1259 
Q 1569 684 1522 0 
L 944 0 
Q 953 541 1156 1306 
Q 1359 2072 1739 2783 
Q 2119 3494 2547 3981 
L 303 3981 
z
" transform="scale(0.015625)"/>
       </defs>
       <use xlink:href="#ArialMT-37"/>
       <use xlink:href="#ArialMT-2e" x="55.615234"/>
       <use xlink:href="#ArialMT-35" x="83.398438"/>
      </g>
     </g>
    </g>
    <g id="ytick_5">
     <g id="line2d_5">
      <path d="M 93.558164 171.965031 
L 487.174046 171.965031 
" clip-path="url(#pc2ea1125c4)" style="fill: none; stroke: #cccccc; stroke-linecap: round"/>
     </g>
     <g id="text_8">
      <!-- 10.0 -->
      <g style="fill: #262626" transform="translate(35.892344 180.822824) scale(0.2475 -0.2475)">
       <defs>
        <path id="ArialMT-31" d="M 2384 0 
L 1822 0 
L 1822 3584 
Q 1619 3391 1289 3197 
Q 959 3003 697 2906 
L 697 3450 
Q 1169 3672 1522 3987 
Q 1875 4303 2022 4600 
L 2384 4600 
L 2384 0 
z
" transform="scale(0.015625)"/>
       </defs>
       <use xlink:href="#ArialMT-31"/>
       <use xlink:href="#ArialMT-30" x="55.615234"/>
       <use xlink:href="#ArialMT-2e" x="111.230469"/>
       <use xlink:href="#ArialMT-30" x="139.013672"/>
      </g>
     </g>
    </g>
    <g id="ytick_6">
     <g id="line2d_6">
      <path d="M 93.558164 116.721781 
L 487.174046 116.721781 
" clip-path="url(#pc2ea1125c4)" style="fill: none; stroke: #cccccc; stroke-linecap: round"/>
     </g>
     <g id="text_9">
      <!-- 12.5 -->
      <g style="fill: #262626" transform="translate(35.892344 125.579574) scale(0.2475 -0.2475)">
       <use xlink:href="#ArialMT-31"/>
       <use xlink:href="#ArialMT-32" x="55.615234"/>
       <use xlink:href="#ArialMT-2e" x="111.230469"/>
       <use xlink:href="#ArialMT-35" x="139.013672"/>
      </g>
     </g>
    </g>
    <g id="ytick_7">
     <g id="line2d_7">
      <path d="M 93.558164 61.478531 
L 487.174046 61.478531 
" clip-path="url(#pc2ea1125c4)" style="fill: none; stroke: #cccccc; stroke-linecap: round"/>
     </g>
     <g id="text_10">
      <!-- 15.0 -->
      <g style="fill: #262626" transform="translate(35.892344 70.336324) scale(0.2475 -0.2475)">
       <use xlink:href="#ArialMT-31"/>
       <use xlink:href="#ArialMT-35" x="55.615234"/>
       <use xlink:href="#ArialMT-2e" x="111.230469"/>
       <use xlink:href="#ArialMT-30" x="139.013672"/>
      </g>
     </g>
    </g>
    <g id="text_11">
     <!-- Mean Reaction Time in seconds -->
     <g style="fill: #262626" transform="translate(26.526094 419.296406) rotate(-90) scale(0.27 -0.27)">
      <defs>
       <path id="ArialMT-4d" d="M 475 0 
L 475 4581 
L 1388 4581 
L 2472 1338 
Q 2622 884 2691 659 
Q 2769 909 2934 1394 
L 4031 4581 
L 4847 4581 
L 4847 0 
L 4263 0 
L 4263 3834 
L 2931 0 
L 2384 0 
L 1059 3900 
L 1059 0 
L 475 0 
z
" transform="scale(0.015625)"/>
       <path id="ArialMT-52" d="M 503 0 
L 503 4581 
L 2534 4581 
Q 3147 4581 3465 4457 
Q 3784 4334 3975 4021 
Q 4166 3709 4166 3331 
Q 4166 2844 3850 2509 
Q 3534 2175 2875 2084 
Q 3116 1969 3241 1856 
Q 3506 1613 3744 1247 
L 4541 0 
L 3778 0 
L 3172 953 
Q 2906 1366 2734 1584 
Q 2563 1803 2427 1890 
Q 2291 1978 2150 2013 
Q 2047 2034 1813 2034 
L 1109 2034 
L 1109 0 
L 503 0 
z
M 1109 2559 
L 2413 2559 
Q 2828 2559 3062 2645 
Q 3297 2731 3419 2920 
Q 3541 3109 3541 3331 
Q 3541 3656 3305 3865 
Q 3069 4075 2559 4075 
L 1109 4075 
L 1109 2559 
z
" transform="scale(0.015625)"/>
       <path id="ArialMT-6f" d="M 213 1659 
Q 213 2581 725 3025 
Q 1153 3394 1769 3394 
Q 2453 3394 2887 2945 
Q 3322 2497 3322 1706 
Q 3322 1066 3130 698 
Q 2938 331 2570 128 
Q 2203 -75 1769 -75 
Q 1072 -75 642 372 
Q 213 819 213 1659 
z
M 791 1659 
Q 791 1022 1069 705 
Q 1347 388 1769 388 
Q 2188 388 2466 706 
Q 2744 1025 2744 1678 
Q 2744 2294 2464 2611 
Q 2184 2928 1769 2928 
Q 1347 2928 1069 2612 
Q 791 2297 791 1659 
z
" transform="scale(0.015625)"/>
       <path id="ArialMT-54" d="M 1659 0 
L 1659 4041 
L 150 4041 
L 150 4581 
L 3781 4581 
L 3781 4041 
L 2266 4041 
L 2266 0 
L 1659 0 
z
" transform="scale(0.015625)"/>
       <path id="ArialMT-73" d="M 197 991 
L 753 1078 
Q 800 744 1014 566 
Q 1228 388 1613 388 
Q 2000 388 2187 545 
Q 2375 703 2375 916 
Q 2375 1106 2209 1216 
Q 2094 1291 1634 1406 
Q 1016 1563 777 1677 
Q 538 1791 414 1992 
Q 291 2194 291 2438 
Q 291 2659 392 2848 
Q 494 3038 669 3163 
Q 800 3259 1026 3326 
Q 1253 3394 1513 3394 
Q 1903 3394 2198 3281 
Q 2494 3169 2634 2976 
Q 2775 2784 2828 2463 
L 2278 2388 
Q 2241 2644 2061 2787 
Q 1881 2931 1553 2931 
Q 1166 2931 1000 2803 
Q 834 2675 834 2503 
Q 834 2394 903 2306 
Q 972 2216 1119 2156 
Q 1203 2125 1616 2013 
Q 2213 1853 2448 1751 
Q 2684 1650 2818 1456 
Q 2953 1263 2953 975 
Q 2953 694 2789 445 
Q 2625 197 2315 61 
Q 2006 -75 1616 -75 
Q 969 -75 630 194 
Q 291 463 197 991 
z
" transform="scale(0.015625)"/>
      </defs>
      <use xlink:href="#ArialMT-4d"/>
      <use xlink:href="#ArialMT-65" x="83.300781"/>
      <use xlink:href="#ArialMT-61" x="138.916016"/>
      <use xlink:href="#ArialMT-6e" x="194.53125"/>
      <use xlink:href="#ArialMT-20" x="250.146484"/>
      <use xlink:href="#ArialMT-52" x="277.929688"/>
      <use xlink:href="#ArialMT-65" x="350.146484"/>
      <use xlink:href="#ArialMT-61" x="405.761719"/>
      <use xlink:href="#ArialMT-63" x="461.376953"/>
      <use xlink:href="#ArialMT-74" x="511.376953"/>
      <use xlink:href="#ArialMT-69" x="539.160156"/>
      <use xlink:href="#ArialMT-6f" x="561.376953"/>
      <use xlink:href="#ArialMT-6e" x="616.992188"/>
      <use xlink:href="#ArialMT-20" x="672.607422"/>
      <use xlink:href="#ArialMT-54" x="698.640625"/>
      <use xlink:href="#ArialMT-69" x="755.974609"/>
      <use xlink:href="#ArialMT-6d" x="778.191406"/>
      <use xlink:href="#ArialMT-65" x="861.492188"/>
      <use xlink:href="#ArialMT-20" x="917.107422"/>
      <use xlink:href="#ArialMT-69" x="944.890625"/>
      <use xlink:href="#ArialMT-6e" x="967.107422"/>
      <use xlink:href="#ArialMT-20" x="1022.722656"/>
      <use xlink:href="#ArialMT-73" x="1050.505859"/>
      <use xlink:href="#ArialMT-65" x="1100.505859"/>
      <use xlink:href="#ArialMT-63" x="1156.121094"/>
      <use xlink:href="#ArialMT-6f" x="1206.121094"/>
      <use xlink:href="#ArialMT-6e" x="1261.736328"/>
      <use xlink:href="#ArialMT-64" x="1317.351562"/>
      <use xlink:href="#ArialMT-73" x="1372.966797"/>
     </g>
    </g>
   </g>
   <g id="patch_3">
    <path d="M 113.238958 392.938031 
L 270.685311 392.938031 
L 270.685311 196.356636 
L 113.238958 196.356636 
z
" clip-path="url(#pc2ea1125c4)" style="fill: #176d9c; stroke: #ffffff; stroke-linejoin: miter"/>
   </g>
   <g id="patch_4">
    <path d="M 310.046899 392.938031 
L 467.493252 392.938031 
L 467.493252 202.450493 
L 310.046899 202.450493 
z
" clip-path="url(#pc2ea1125c4)" style="fill: #c38820; stroke: #ffffff; stroke-linejoin: miter"/>
   </g>
   <g id="line2d_8">
    <path d="M 191.962135 206.903662 
L 191.962135 185.80961 
" clip-path="url(#pc2ea1125c4)" style="fill: none; stroke: #424242; stroke-width: 2.7; stroke-linecap: round"/>
   </g>
   <g id="line2d_9">
    <path d="M 182.121738 206.903662 
L 201.802532 206.903662 
" clip-path="url(#pc2ea1125c4)" style="fill: none; stroke: #424242; stroke-width: 2.7; stroke-linecap: round"/>
   </g>
   <g id="line2d_10">
    <path d="M 182.121738 185.80961 
L 201.802532 185.80961 
" clip-path="url(#pc2ea1125c4)" style="fill: none; stroke: #424242; stroke-width: 2.7; stroke-linecap: round"/>
   </g>
   <g id="line2d_11">
    <path d="M 388.770076 211.892988 
L 388.770076 193.007997 
" clip-path="url(#pc2ea1125c4)" style="fill: none; stroke: #424242; stroke-width: 2.7; stroke-linecap: round"/>
   </g>
   <g id="line2d_12">
    <path d="M 378.929679 211.892988 
L 398.610473 211.892988 
" clip-path="url(#pc2ea1125c4)" style="fill: none; stroke: #424242; stroke-width: 2.7; stroke-linecap: round"/>
   </g>
   <g id="line2d_13">
    <path d="M 378.929679 193.007997 
L 398.610473 193.007997 
" clip-path="url(#pc2ea1125c4)" style="fill: none; stroke: #424242; stroke-width: 2.7; stroke-linecap: round"/>
   </g>
   <g id="patch_5">
    <path d="M 93.558164 392.938031 
L 93.558164 61.478531 
" style="fill: none; stroke: #cccccc; stroke-width: 1.25; stroke-linejoin: miter; stroke-linecap: square"/>
   </g>
   <g id="patch_6">
    <path d="M 487.174046 392.938031 
L 487.174046 61.478531 
" style="fill: none; stroke: #cccccc; stroke-width: 1.25; stroke-linejoin: miter; stroke-linecap: square"/>
   </g>
   <g id="patch_7">
    <path d="M 93.558164 392.938031 
L 487.174046 392.938031 
" style="fill: none; stroke: #cccccc; stroke-width: 1.25; stroke-linejoin: miter; stroke-linecap: square"/>
   </g>
   <g id="patch_8">
    <path d="M 93.558164 61.478531 
L 487.174046 61.478531 
" style="fill: none; stroke: #cccccc; stroke-width: 1.25; stroke-linejoin: miter; stroke-linecap: square"/>
   </g>
   <g id="text_12">
    <!-- Main Effect Plot: -->
    <g style="fill: #262626" transform="translate(192.316027 26.526094) scale(0.27 -0.27)">
     <defs>
      <path id="ArialMT-45" d="M 506 0 
L 506 4581 
L 3819 4581 
L 3819 4041 
L 1113 4041 
L 1113 2638 
L 3647 2638 
L 3647 2100 
L 1113 2100 
L 1113 541 
L 3925 541 
L 3925 0 
L 506 0 
z
" transform="scale(0.015625)"/>
      <path id="ArialMT-50" d="M 494 0 
L 494 4581 
L 2222 4581 
Q 2678 4581 2919 4538 
Q 3256 4481 3484 4323 
Q 3713 4166 3852 3881 
Q 3991 3597 3991 3256 
Q 3991 2672 3619 2267 
Q 3247 1863 2275 1863 
L 1100 1863 
L 1100 0 
L 494 0 
z
M 1100 2403 
L 2284 2403 
Q 2872 2403 3119 2622 
Q 3366 2841 3366 3238 
Q 3366 3525 3220 3729 
Q 3075 3934 2838 4000 
Q 2684 4041 2272 4041 
L 1100 4041 
L 1100 2403 
z
" transform="scale(0.015625)"/>
      <path id="ArialMT-3a" d="M 578 2678 
L 578 3319 
L 1219 3319 
L 1219 2678 
L 578 2678 
z
M 578 0 
L 578 641 
L 1219 641 
L 1219 0 
L 578 0 
z
" transform="scale(0.015625)"/>
     </defs>
     <use xlink:href="#ArialMT-4d"/>
     <use xlink:href="#ArialMT-61" x="83.300781"/>
     <use xlink:href="#ArialMT-69" x="138.916016"/>
     <use xlink:href="#ArialMT-6e" x="161.132812"/>
     <use xlink:href="#ArialMT-20" x="216.748047"/>
     <use xlink:href="#ArialMT-45" x="244.53125"/>
     <use xlink:href="#ArialMT-66" x="311.230469"/>
     <use xlink:href="#ArialMT-66" x="337.263672"/>
     <use xlink:href="#ArialMT-65" x="365.046875"/>
     <use xlink:href="#ArialMT-63" x="420.662109"/>
     <use xlink:href="#ArialMT-74" x="470.662109"/>
     <use xlink:href="#ArialMT-20" x="498.445312"/>
     <use xlink:href="#ArialMT-50" x="526.228516"/>
     <use xlink:href="#ArialMT-6c" x="592.927734"/>
     <use xlink:href="#ArialMT-6f" x="615.144531"/>
     <use xlink:href="#ArialMT-74" x="670.759766"/>
     <use xlink:href="#ArialMT-3a" x="698.542969"/>
    </g>
    <!-- Image Authenticity (n.s.) -->
    <g style="fill: #262626" transform="translate(145.557511 55.478531) scale(0.27 -0.27)">
     <defs>
      <path id="ArialMT-28" d="M 1497 -1347 
Q 1031 -759 709 28 
Q 388 816 388 1659 
Q 388 2403 628 3084 
Q 909 3875 1497 4659 
L 1900 4659 
Q 1522 4009 1400 3731 
Q 1209 3300 1100 2831 
Q 966 2247 966 1656 
Q 966 153 1900 -1347 
L 1497 -1347 
z
" transform="scale(0.015625)"/>
      <path id="ArialMT-29" d="M 791 -1347 
L 388 -1347 
Q 1322 153 1322 1656 
Q 1322 2244 1188 2822 
Q 1081 3291 891 3722 
Q 769 4003 388 4659 
L 791 4659 
Q 1378 3875 1659 3084 
Q 1900 2403 1900 1659 
Q 1900 816 1576 28 
Q 1253 -759 791 -1347 
z
" transform="scale(0.015625)"/>
     </defs>
     <use xlink:href="#ArialMT-49"/>
     <use xlink:href="#ArialMT-6d" x="27.783203"/>
     <use xlink:href="#ArialMT-61" x="111.083984"/>
     <use xlink:href="#ArialMT-67" x="166.699219"/>
     <use xlink:href="#ArialMT-65" x="222.314453"/>
     <use xlink:href="#ArialMT-20" x="277.929688"/>
     <use xlink:href="#ArialMT-41" x="300.212891"/>
     <use xlink:href="#ArialMT-75" x="366.912109"/>
     <use xlink:href="#ArialMT-74" x="422.527344"/>
     <use xlink:href="#ArialMT-68" x="450.310547"/>
     <use xlink:href="#ArialMT-65" x="505.925781"/>
     <use xlink:href="#ArialMT-6e" x="561.541016"/>
     <use xlink:href="#ArialMT-74" x="617.15625"/>
     <use xlink:href="#ArialMT-69" x="644.939453"/>
     <use xlink:href="#ArialMT-63" x="667.15625"/>
     <use xlink:href="#ArialMT-69" x="717.15625"/>
     <use xlink:href="#ArialMT-74" x="739.373047"/>
     <use xlink:href="#ArialMT-79" x="767.15625"/>
     <use xlink:href="#ArialMT-20" x="817.15625"/>
     <use xlink:href="#ArialMT-28" x="844.939453"/>
     <use xlink:href="#ArialMT-6e" x="878.240234"/>
     <use xlink:href="#ArialMT-2e" x="933.855469"/>
     <use xlink:href="#ArialMT-73" x="961.638672"/>
     <use xlink:href="#ArialMT-2e" x="1011.638672"/>
     <use xlink:href="#ArialMT-29" x="1039.421875"/>
    </g>
   </g>
  </g>
  <g id="axes_2">
   <g id="patch_9">
    <path d="M 544.480223 392.938031 
L 938.096105 392.938031 
L 938.096105 61.478531 
L 544.480223 61.478531 
z
" style="fill: #ffffff"/>
   </g>
   <g id="matplotlib.axis_3">
    <g id="xtick_3">
     <g id="text_13">
      <!-- old -->
      <g style="fill: #262626" transform="translate(625.377323 420.153617) scale(0.2475 -0.2475)">
       <use xlink:href="#ArialMT-6f"/>
       <use xlink:href="#ArialMT-6c" x="55.615234"/>
       <use xlink:href="#ArialMT-64" x="77.832031"/>
      </g>
     </g>
    </g>
    <g id="xtick_4">
     <g id="text_14">
      <!-- young -->
      <g style="fill: #262626" transform="translate(806.971974 419.863578) scale(0.2475 -0.2475)">
       <use xlink:href="#ArialMT-79"/>
       <use xlink:href="#ArialMT-6f" x="50"/>
       <use xlink:href="#ArialMT-75" x="105.615234"/>
       <use xlink:href="#ArialMT-6e" x="161.230469"/>
       <use xlink:href="#ArialMT-67" x="216.845703"/>
      </g>
     </g>
    </g>
    <g id="text_15">
     <!-- Age -->
     <g style="fill: #262626" transform="translate(717.268711 448.398773) scale(0.27 -0.27)">
      <use xlink:href="#ArialMT-41"/>
      <use xlink:href="#ArialMT-67" x="66.699219"/>
      <use xlink:href="#ArialMT-65" x="122.314453"/>
     </g>
    </g>
   </g>
   <g id="matplotlib.axis_4">
    <g id="ytick_8">
     <g id="line2d_14">
      <path d="M 544.480223 392.938031 
L 938.096105 392.938031 
" clip-path="url(#p73d3146d07)" style="fill: none; stroke: #cccccc; stroke-linecap: round"/>
     </g>
    </g>
    <g id="ytick_9">
     <g id="line2d_15">
      <path d="M 544.480223 337.694781 
L 938.096105 337.694781 
" clip-path="url(#p73d3146d07)" style="fill: none; stroke: #cccccc; stroke-linecap: round"/>
     </g>
    </g>
    <g id="ytick_10">
     <g id="line2d_16">
      <path d="M 544.480223 282.451531 
L 938.096105 282.451531 
" clip-path="url(#p73d3146d07)" style="fill: none; stroke: #cccccc; stroke-linecap: round"/>
     </g>
    </g>
    <g id="ytick_11">
     <g id="line2d_17">
      <path d="M 544.480223 227.208281 
L 938.096105 227.208281 
" clip-path="url(#p73d3146d07)" style="fill: none; stroke: #cccccc; stroke-linecap: round"/>
     </g>
    </g>
    <g id="ytick_12">
     <g id="line2d_18">
      <path d="M 544.480223 171.965031 
L 938.096105 171.965031 
" clip-path="url(#p73d3146d07)" style="fill: none; stroke: #cccccc; stroke-linecap: round"/>
     </g>
    </g>
    <g id="ytick_13">
     <g id="line2d_19">
      <path d="M 544.480223 116.721781 
L 938.096105 116.721781 
" clip-path="url(#p73d3146d07)" style="fill: none; stroke: #cccccc; stroke-linecap: round"/>
     </g>
    </g>
    <g id="ytick_14">
     <g id="line2d_20">
      <path d="M 544.480223 61.478531 
L 938.096105 61.478531 
" clip-path="url(#p73d3146d07)" style="fill: none; stroke: #cccccc; stroke-linecap: round"/>
     </g>
    </g>
   </g>
   <g id="patch_10">
    <path d="M 562.371854 392.938031 
L 721.408574 392.938031 
L 721.408574 154.771189 
L 562.371854 154.771189 
z
" clip-path="url(#p73d3146d07)" style="fill: #68afd7; stroke: #ffffff; stroke-linejoin: miter"/>
   </g>
   <g id="patch_11">
    <path d="M 761.167754 392.938031 
L 920.204474 392.938031 
L 920.204474 242.469891 
L 761.167754 242.469891 
z
" clip-path="url(#p73d3146d07)" style="fill: #ba611b; stroke: #ffffff; stroke-linejoin: miter"/>
   </g>
   <g id="line2d_21">
    <path d="M 641.890214 166.156707 
L 641.890214 143.385671 
" clip-path="url(#p73d3146d07)" style="fill: none; stroke: #424242; stroke-width: 2.7; stroke-linecap: round"/>
   </g>
   <g id="line2d_22">
    <path d="M 631.950419 166.156707 
L 651.830009 166.156707 
" clip-path="url(#p73d3146d07)" style="fill: none; stroke: #424242; stroke-width: 2.7; stroke-linecap: round"/>
   </g>
   <g id="line2d_23">
    <path d="M 631.950419 143.385671 
L 651.830009 143.385671 
" clip-path="url(#p73d3146d07)" style="fill: none; stroke: #424242; stroke-width: 2.7; stroke-linecap: round"/>
   </g>
   <g id="line2d_24">
    <path d="M 840.686114 248.753517 
L 840.686114 236.186265 
" clip-path="url(#p73d3146d07)" style="fill: none; stroke: #424242; stroke-width: 2.7; stroke-linecap: round"/>
   </g>
   <g id="line2d_25">
    <path d="M 830.746319 248.753517 
L 850.625909 248.753517 
" clip-path="url(#p73d3146d07)" style="fill: none; stroke: #424242; stroke-width: 2.7; stroke-linecap: round"/>
   </g>
   <g id="line2d_26">
    <path d="M 830.746319 236.186265 
L 850.625909 236.186265 
" clip-path="url(#p73d3146d07)" style="fill: none; stroke: #424242; stroke-width: 2.7; stroke-linecap: round"/>
   </g>
   <g id="line2d_27">
    <path d="M 641.890214 127.770431 
L 641.890214 105.673131 
L 840.686114 105.673131 
L 840.686114 127.770431 
" clip-path="url(#p73d3146d07)" style="fill: none; stroke: #000000; stroke-width: 1.5; stroke-linecap: round"/>
   </g>
   <g id="patch_12">
    <path d="M 544.480223 392.938031 
L 544.480223 61.478531 
" style="fill: none; stroke: #cccccc; stroke-width: 1.25; stroke-linejoin: miter; stroke-linecap: square"/>
   </g>
   <g id="patch_13">
    <path d="M 938.096105 392.938031 
L 938.096105 61.478531 
" style="fill: none; stroke: #cccccc; stroke-width: 1.25; stroke-linejoin: miter; stroke-linecap: square"/>
   </g>
   <g id="patch_14">
    <path d="M 544.480223 392.938031 
L 938.096105 392.938031 
" style="fill: none; stroke: #cccccc; stroke-width: 1.25; stroke-linejoin: miter; stroke-linecap: square"/>
   </g>
   <g id="patch_15">
    <path d="M 544.480223 61.478531 
L 938.096105 61.478531 
" style="fill: none; stroke: #cccccc; stroke-width: 1.25; stroke-linejoin: miter; stroke-linecap: square"/>
   </g>
   <g id="text_16">
    <!-- *** -->
    <g transform="translate(727.276289 97.903131) scale(0.24 -0.24)">
     <defs>
      <path id="ArialMT-2a" d="M 200 3741 
L 344 4184 
Q 841 4009 1066 3881 
Q 1006 4447 1003 4659 
L 1456 4659 
Q 1447 4350 1384 3884 
Q 1706 4047 2122 4184 
L 2266 3741 
Q 1869 3609 1488 3566 
Q 1678 3400 2025 2975 
L 1650 2709 
Q 1469 2956 1222 3381 
Q 991 2941 816 2709 
L 447 2975 
Q 809 3422 966 3566 
Q 563 3644 200 3741 
z
" transform="scale(0.015625)"/>
     </defs>
     <use xlink:href="#ArialMT-2a"/>
     <use xlink:href="#ArialMT-2a" x="38.916016"/>
     <use xlink:href="#ArialMT-2a" x="77.832031"/>
    </g>
   </g>
   <g id="text_17">
    <!-- Main Effect Plot: -->
    <g style="fill: #262626" transform="translate(643.238086 26.526094) scale(0.27 -0.27)">
     <use xlink:href="#ArialMT-4d"/>
     <use xlink:href="#ArialMT-61" x="83.300781"/>
     <use xlink:href="#ArialMT-69" x="138.916016"/>
     <use xlink:href="#ArialMT-6e" x="161.132812"/>
     <use xlink:href="#ArialMT-20" x="216.748047"/>
     <use xlink:href="#ArialMT-45" x="244.53125"/>
     <use xlink:href="#ArialMT-66" x="311.230469"/>
     <use xlink:href="#ArialMT-66" x="337.263672"/>
     <use xlink:href="#ArialMT-65" x="365.046875"/>
     <use xlink:href="#ArialMT-63" x="420.662109"/>
     <use xlink:href="#ArialMT-74" x="470.662109"/>
     <use xlink:href="#ArialMT-20" x="498.445312"/>
     <use xlink:href="#ArialMT-50" x="526.228516"/>
     <use xlink:href="#ArialMT-6c" x="592.927734"/>
     <use xlink:href="#ArialMT-6f" x="615.144531"/>
     <use xlink:href="#ArialMT-74" x="670.759766"/>
     <use xlink:href="#ArialMT-3a" x="698.542969"/>
    </g>
    <!-- Age (p&lt;.001) -->
    <g style="fill: #262626" transform="translate(662.863711 55.478531) scale(0.27 -0.27)">
     <defs>
      <path id="ArialMT-70" d="M 422 -1272 
L 422 3319 
L 934 3319 
L 934 2888 
Q 1116 3141 1344 3267 
Q 1572 3394 1897 3394 
Q 2322 3394 2647 3175 
Q 2972 2956 3137 2557 
Q 3303 2159 3303 1684 
Q 3303 1175 3120 767 
Q 2938 359 2589 142 
Q 2241 -75 1856 -75 
Q 1575 -75 1351 44 
Q 1128 163 984 344 
L 984 -1272 
L 422 -1272 
z
M 931 1641 
Q 931 1000 1190 694 
Q 1450 388 1819 388 
Q 2194 388 2461 705 
Q 2728 1022 2728 1688 
Q 2728 2322 2467 2637 
Q 2206 2953 1844 2953 
Q 1484 2953 1207 2617 
Q 931 2281 931 1641 
z
" transform="scale(0.015625)"/>
      <path id="ArialMT-3c" d="M 350 2003 
L 350 2528 
L 3384 3809 
L 3384 3250 
L 978 2263 
L 3384 1266 
L 3384 706 
L 350 2003 
z
" transform="scale(0.015625)"/>
     </defs>
     <use xlink:href="#ArialMT-41"/>
     <use xlink:href="#ArialMT-67" x="66.699219"/>
     <use xlink:href="#ArialMT-65" x="122.314453"/>
     <use xlink:href="#ArialMT-20" x="177.929688"/>
     <use xlink:href="#ArialMT-28" x="205.712891"/>
     <use xlink:href="#ArialMT-70" x="239.013672"/>
     <use xlink:href="#ArialMT-3c" x="294.628906"/>
     <use xlink:href="#ArialMT-2e" x="353.027344"/>
     <use xlink:href="#ArialMT-30" x="380.810547"/>
     <use xlink:href="#ArialMT-30" x="436.425781"/>
     <use xlink:href="#ArialMT-31" x="492.041016"/>
     <use xlink:href="#ArialMT-29" x="547.65625"/>
    </g>
   </g>
  </g>
  <g id="axes_3">
   <g id="patch_16">
    <path d="M 995.402282 392.938031 
L 1389.018164 392.938031 
L 1389.018164 61.478531 
L 995.402282 61.478531 
z
" style="fill: #ffffff"/>
   </g>
   <g id="matplotlib.axis_5">
    <g id="xtick_5">
     <g id="text_18">
      <!-- old -->
      <g style="fill: #262626" transform="translate(1077.293362 420.153617) scale(0.2475 -0.2475)">
       <use xlink:href="#ArialMT-6f"/>
       <use xlink:href="#ArialMT-6c" x="55.615234"/>
       <use xlink:href="#ArialMT-64" x="77.832031"/>
      </g>
     </g>
    </g>
    <g id="xtick_6">
     <g id="text_19">
      <!-- young -->
      <g style="fill: #262626" transform="translate(1256.900053 419.863578) scale(0.2475 -0.2475)">
       <use xlink:href="#ArialMT-79"/>
       <use xlink:href="#ArialMT-6f" x="50"/>
       <use xlink:href="#ArialMT-75" x="105.615234"/>
       <use xlink:href="#ArialMT-6e" x="161.230469"/>
       <use xlink:href="#ArialMT-67" x="216.845703"/>
      </g>
     </g>
    </g>
    <g id="text_20">
     <!-- Age -->
     <g style="fill: #262626" transform="translate(1168.19077 448.398773) scale(0.27 -0.27)">
      <use xlink:href="#ArialMT-41"/>
      <use xlink:href="#ArialMT-67" x="66.699219"/>
      <use xlink:href="#ArialMT-65" x="122.314453"/>
     </g>
    </g>
   </g>
   <g id="matplotlib.axis_6">
    <g id="ytick_15">
     <g id="line2d_28">
      <path d="M 995.402282 392.938031 
L 1389.018164 392.938031 
" clip-path="url(#pbba7da9645)" style="fill: none; stroke: #cccccc; stroke-linecap: round"/>
     </g>
    </g>
    <g id="ytick_16">
     <g id="line2d_29">
      <path d="M 995.402282 337.694781 
L 1389.018164 337.694781 
" clip-path="url(#pbba7da9645)" style="fill: none; stroke: #cccccc; stroke-linecap: round"/>
     </g>
    </g>
    <g id="ytick_17">
     <g id="line2d_30">
      <path d="M 995.402282 282.451531 
L 1389.018164 282.451531 
" clip-path="url(#pbba7da9645)" style="fill: none; stroke: #cccccc; stroke-linecap: round"/>
     </g>
    </g>
    <g id="ytick_18">
     <g id="line2d_31">
      <path d="M 995.402282 227.208281 
L 1389.018164 227.208281 
" clip-path="url(#pbba7da9645)" style="fill: none; stroke: #cccccc; stroke-linecap: round"/>
     </g>
    </g>
    <g id="ytick_19">
     <g id="line2d_32">
      <path d="M 995.402282 171.965031 
L 1389.018164 171.965031 
" clip-path="url(#pbba7da9645)" style="fill: none; stroke: #cccccc; stroke-linecap: round"/>
     </g>
    </g>
    <g id="ytick_20">
     <g id="line2d_33">
      <path d="M 995.402282 116.721781 
L 1389.018164 116.721781 
" clip-path="url(#pbba7da9645)" style="fill: none; stroke: #cccccc; stroke-linecap: round"/>
     </g>
    </g>
    <g id="ytick_21">
     <g id="line2d_34">
      <path d="M 995.402282 61.478531 
L 1389.018164 61.478531 
" clip-path="url(#pbba7da9645)" style="fill: none; stroke: #cccccc; stroke-linecap: round"/>
     </g>
    </g>
   </g>
   <g id="line2d_35">
    <path d="M 1088.886054 146.684113 
L 1285.693995 244.286264 
" clip-path="url(#pbba7da9645)" style="fill: none; stroke: #0173b2; stroke-width: 2.7; stroke-linecap: round"/>
   </g>
   <g id="line2d_36">
    <path d="M 1088.886054 164.241638 
L 1088.886054 129.126588 
" clip-path="url(#pbba7da9645)" style="fill: none; stroke: #0173b2; stroke-width: 2.7; stroke-linecap: round"/>
   </g>
   <g id="line2d_37">
    <path d="M 1285.693995 252.216343 
L 1285.693995 236.356184 
" clip-path="url(#pbba7da9645)" style="fill: none; stroke: #0173b2; stroke-width: 2.7; stroke-linecap: round"/>
   </g>
   <g id="PathCollection_1">
    <defs>
     <path id="mfc396e25c9" d="M 0 3.383948 
C 0.897434 3.383948 1.758231 3.027394 2.392813 2.392813 
C 3.027394 1.758231 3.383948 0.897434 3.383948 0 
C 3.383948 -0.897434 3.027394 -1.758231 2.392813 -2.392813 
C 1.758231 -3.027394 0.897434 -3.383948 0 -3.383948 
C -0.897434 -3.383948 -1.758231 -3.027394 -2.392813 -2.392813 
C -3.027394 -1.758231 -3.383948 -0.897434 -3.383948 0 
C -3.383948 0.897434 -3.027394 1.758231 -2.392813 2.392813 
C -1.758231 3.027394 -0.897434 3.383948 0 3.383948 
z
" style="stroke: #0173b2; stroke-width: 2.025"/>
    </defs>
    <g clip-path="url(#pbba7da9645)">
     <use xlink:href="#mfc396e25c9" x="1088.886054" y="146.684113" style="fill: #0173b2; stroke: #0173b2; stroke-width: 2.025"/>
     <use xlink:href="#mfc396e25c9" x="1285.693995" y="244.286264" style="fill: #0173b2; stroke: #0173b2; stroke-width: 2.025"/>
    </g>
   </g>
   <g id="line2d_38">
    <path d="M 1098.726451 162.858265 
L 1295.534392 240.653519 
" clip-path="url(#pbba7da9645)" style="fill: none; stroke: #de8f05; stroke-width: 2.7; stroke-linecap: round"/>
   </g>
   <g id="line2d_39">
    <path d="M 1098.726451 177.440179 
L 1098.726451 148.276351 
" clip-path="url(#pbba7da9645)" style="fill: none; stroke: #de8f05; stroke-width: 2.7; stroke-linecap: round"/>
   </g>
   <g id="line2d_40">
    <path d="M 1295.534392 250.468914 
L 1295.534392 230.838124 
" clip-path="url(#pbba7da9645)" style="fill: none; stroke: #de8f05; stroke-width: 2.7; stroke-linecap: round"/>
   </g>
   <g id="PathCollection_2">
    <defs>
     <path id="mc6c433b4f6" d="M -3.383948 3.383948 
L 3.383948 3.383948 
L 3.383948 -3.383948 
L -3.383948 -3.383948 
z
" style="stroke: #de8f05; stroke-width: 2.025"/>
    </defs>
    <g clip-path="url(#pbba7da9645)">
     <use xlink:href="#mc6c433b4f6" x="1098.726451" y="162.858265" style="fill: #de8f05; stroke: #de8f05; stroke-width: 2.025"/>
     <use xlink:href="#mc6c433b4f6" x="1295.534392" y="240.653519" style="fill: #de8f05; stroke: #de8f05; stroke-width: 2.025"/>
    </g>
   </g>
   <g id="patch_17">
    <path d="M 995.402282 392.938031 
L 995.402282 61.478531 
" style="fill: none; stroke: #cccccc; stroke-width: 1.25; stroke-linejoin: miter; stroke-linecap: square"/>
   </g>
   <g id="patch_18">
    <path d="M 1389.018164 392.938031 
L 1389.018164 61.478531 
" style="fill: none; stroke: #cccccc; stroke-width: 1.25; stroke-linejoin: miter; stroke-linecap: square"/>
   </g>
   <g id="patch_19">
    <path d="M 995.402282 392.938031 
L 1389.018164 392.938031 
" style="fill: none; stroke: #cccccc; stroke-width: 1.25; stroke-linejoin: miter; stroke-linecap: square"/>
   </g>
   <g id="patch_20">
    <path d="M 995.402282 61.478531 
L 1389.018164 61.478531 
" style="fill: none; stroke: #cccccc; stroke-width: 1.25; stroke-linejoin: miter; stroke-linecap: square"/>
   </g>
   <g id="text_21">
    <!-- Interaction plot: -->
    <g style="fill: #262626" transform="translate(1099.91241 26.526094) scale(0.27 -0.27)">
     <use xlink:href="#ArialMT-49"/>
     <use xlink:href="#ArialMT-6e" x="27.783203"/>
     <use xlink:href="#ArialMT-74" x="83.398438"/>
     <use xlink:href="#ArialMT-65" x="111.181641"/>
     <use xlink:href="#ArialMT-72" x="166.796875"/>
     <use xlink:href="#ArialMT-61" x="200.097656"/>
     <use xlink:href="#ArialMT-63" x="255.712891"/>
     <use xlink:href="#ArialMT-74" x="305.712891"/>
     <use xlink:href="#ArialMT-69" x="333.496094"/>
     <use xlink:href="#ArialMT-6f" x="355.712891"/>
     <use xlink:href="#ArialMT-6e" x="411.328125"/>
     <use xlink:href="#ArialMT-20" x="466.943359"/>
     <use xlink:href="#ArialMT-70" x="494.726562"/>
     <use xlink:href="#ArialMT-6c" x="550.341797"/>
     <use xlink:href="#ArialMT-6f" x="572.558594"/>
     <use xlink:href="#ArialMT-74" x="628.173828"/>
     <use xlink:href="#ArialMT-3a" x="655.957031"/>
    </g>
    <!-- Age ~ Image Authenticity (n.s.) -->
    <g style="fill: #262626" transform="translate(1007.996395 55.478531) scale(0.27 -0.27)">
     <defs>
      <path id="ArialMT-7e" d="M 272 1741 
L 272 2381 
Q 603 2756 1141 2756 
Q 1328 2756 1534 2701 
Q 1741 2647 2122 2484 
Q 2338 2394 2445 2366 
Q 2553 2338 2663 2338 
Q 2866 2338 3083 2459 
Q 3300 2581 3469 2766 
L 3469 2103 
Q 3269 1916 3064 1831 
Q 2859 1747 2603 1747 
Q 2416 1747 2245 1790 
Q 2075 1834 1704 2000 
Q 1334 2166 1088 2166 
Q 888 2166 711 2080 
Q 534 1994 272 1741 
z
" transform="scale(0.015625)"/>
     </defs>
     <use xlink:href="#ArialMT-41"/>
     <use xlink:href="#ArialMT-67" x="66.699219"/>
     <use xlink:href="#ArialMT-65" x="122.314453"/>
     <use xlink:href="#ArialMT-20" x="177.929688"/>
     <use xlink:href="#ArialMT-7e" x="205.712891"/>
     <use xlink:href="#ArialMT-20" x="264.111328"/>
     <use xlink:href="#ArialMT-49" x="291.894531"/>
     <use xlink:href="#ArialMT-6d" x="319.677734"/>
     <use xlink:href="#ArialMT-61" x="402.978516"/>
     <use xlink:href="#ArialMT-67" x="458.59375"/>
     <use xlink:href="#ArialMT-65" x="514.208984"/>
     <use xlink:href="#ArialMT-20" x="569.824219"/>
     <use xlink:href="#ArialMT-41" x="592.107422"/>
     <use xlink:href="#ArialMT-75" x="658.806641"/>
     <use xlink:href="#ArialMT-74" x="714.421875"/>
     <use xlink:href="#ArialMT-68" x="742.205078"/>
     <use xlink:href="#ArialMT-65" x="797.820312"/>
     <use xlink:href="#ArialMT-6e" x="853.435547"/>
     <use xlink:href="#ArialMT-74" x="909.050781"/>
     <use xlink:href="#ArialMT-69" x="936.833984"/>
     <use xlink:href="#ArialMT-63" x="959.050781"/>
     <use xlink:href="#ArialMT-69" x="1009.050781"/>
     <use xlink:href="#ArialMT-74" x="1031.267578"/>
     <use xlink:href="#ArialMT-79" x="1059.050781"/>
     <use xlink:href="#ArialMT-20" x="1109.050781"/>
     <use xlink:href="#ArialMT-28" x="1136.833984"/>
     <use xlink:href="#ArialMT-6e" x="1170.134766"/>
     <use xlink:href="#ArialMT-2e" x="1225.75"/>
     <use xlink:href="#ArialMT-73" x="1253.533203"/>
     <use xlink:href="#ArialMT-2e" x="1303.533203"/>
     <use xlink:href="#ArialMT-29" x="1331.316406"/>
    </g>
   </g>
   <g id="legend_1">
    <g id="patch_21">
     <path d="M 1012.727282 380.563031 
L 1312.028258 380.563031 
Q 1316.978258 380.563031 1316.978258 375.613031 
L 1316.978258 270.093305 
Q 1316.978258 265.143305 1312.028258 265.143305 
L 1012.727282 265.143305 
Q 1007.777282 265.143305 1007.777282 270.093305 
L 1007.777282 375.613031 
Q 1007.777282 380.563031 1012.727282 380.563031 
z
" style="fill: #ffffff; opacity: 0.8; stroke: #cccccc; stroke-linejoin: miter"/>
    </g>
    <g id="text_22">
     <!-- Image Authenticity -->
     <g style="fill: #262626" transform="translate(1052.068004 294.369398) scale(0.27 -0.27)">
      <use xlink:href="#ArialMT-49"/>
      <use xlink:href="#ArialMT-6d" x="27.783203"/>
      <use xlink:href="#ArialMT-61" x="111.083984"/>
      <use xlink:href="#ArialMT-67" x="166.699219"/>
      <use xlink:href="#ArialMT-65" x="222.314453"/>
      <use xlink:href="#ArialMT-20" x="277.929688"/>
      <use xlink:href="#ArialMT-41" x="300.212891"/>
      <use xlink:href="#ArialMT-75" x="366.912109"/>
      <use xlink:href="#ArialMT-74" x="422.527344"/>
      <use xlink:href="#ArialMT-68" x="450.310547"/>
      <use xlink:href="#ArialMT-65" x="505.925781"/>
      <use xlink:href="#ArialMT-6e" x="561.541016"/>
      <use xlink:href="#ArialMT-74" x="617.15625"/>
      <use xlink:href="#ArialMT-69" x="644.939453"/>
      <use xlink:href="#ArialMT-63" x="667.15625"/>
      <use xlink:href="#ArialMT-69" x="717.15625"/>
      <use xlink:href="#ArialMT-74" x="739.373047"/>
      <use xlink:href="#ArialMT-79" x="767.15625"/>
     </g>
    </g>
    <g id="PathCollection_3">
     <g>
      <use xlink:href="#mfc396e25c9" x="1042.427282" y="323.645766" style="fill: #0173b2; stroke: #0173b2; stroke-width: 2.025"/>
     </g>
    </g>
    <g id="text_23">
     <!-- real -->
     <g style="fill: #262626" transform="translate(1086.977282 330.142641) scale(0.2475 -0.2475)">
      <use xlink:href="#ArialMT-72"/>
      <use xlink:href="#ArialMT-65" x="33.300781"/>
      <use xlink:href="#ArialMT-61" x="88.916016"/>
      <use xlink:href="#ArialMT-6c" x="144.53125"/>
     </g>
    </g>
    <g id="PathCollection_4">
     <g>
      <use xlink:href="#mc6c433b4f6" x="1042.427282" y="358.957055" style="fill: #de8f05; stroke: #de8f05; stroke-width: 2.025"/>
     </g>
    </g>
    <g id="text_24">
     <!-- artificially generated -->
     <g style="fill: #262626" transform="translate(1086.977282 365.45393) scale(0.2475 -0.2475)">
      <use xlink:href="#ArialMT-61"/>
      <use xlink:href="#ArialMT-72" x="55.615234"/>
      <use xlink:href="#ArialMT-74" x="88.916016"/>
      <use xlink:href="#ArialMT-69" x="116.699219"/>
      <use xlink:href="#ArialMT-66" x="138.916016"/>
      <use xlink:href="#ArialMT-69" x="166.699219"/>
      <use xlink:href="#ArialMT-63" x="188.916016"/>
      <use xlink:href="#ArialMT-69" x="238.916016"/>
      <use xlink:href="#ArialMT-61" x="261.132812"/>
      <use xlink:href="#ArialMT-6c" x="316.748047"/>
      <use xlink:href="#ArialMT-6c" x="338.964844"/>
      <use xlink:href="#ArialMT-79" x="361.181641"/>
      <use xlink:href="#ArialMT-20" x="411.181641"/>
      <use xlink:href="#ArialMT-67" x="438.964844"/>
      <use xlink:href="#ArialMT-65" x="494.580078"/>
      <use xlink:href="#ArialMT-6e" x="550.195312"/>
      <use xlink:href="#ArialMT-65" x="605.810547"/>
      <use xlink:href="#ArialMT-72" x="661.425781"/>
      <use xlink:href="#ArialMT-61" x="694.726562"/>
      <use xlink:href="#ArialMT-74" x="750.341797"/>
      <use xlink:href="#ArialMT-65" x="778.125"/>
      <use xlink:href="#ArialMT-64" x="833.740234"/>
     </g>
    </g>
   </g>
  </g>
 </g>
 <defs>
  <clipPath id="pc2ea1125c4">
   <rect x="93.558164" y="61.478531" width="393.615882" height="331.4595"/>
  </clipPath>
  <clipPath id="p73d3146d07">
   <rect x="544.480223" y="61.478531" width="393.615882" height="331.4595"/>
  </clipPath>
  <clipPath id="pbba7da9645">
   <rect x="995.402282" y="61.478531" width="393.615882" height="331.4595"/>
  </clipPath>
 </defs>
</svg>
